<?xml version="1.0" encoding="UTF-8"?>
<svg version="1.1" xmlns="http://www.w3.org/2000/svg" width="500" height="500">
<path d="M0 0 C2.32768329 -0.00644279 4.6553658 -0.01317219 6.98304749 -0.02017212 C11.8504524 -0.03210071 16.7177866 -0.03585772 21.58520508 -0.03466797 C27.76070162 -0.03446553 33.93573411 -0.0617102 40.11112118 -0.09621239 C44.91846208 -0.11867774 49.72569499 -0.12249948 54.53308296 -0.12144852 C56.80639804 -0.12377728 59.07971739 -0.13244287 61.35297966 -0.14811325 C83.8515708 -0.28863886 103.75946521 2.40055947 124.09765625 12.3359375 C125.04705078 12.79105713 125.04705078 12.79105713 126.015625 13.25537109 C133.8577693 17.05949153 140.58404892 21.56674244 147.09765625 27.3359375 C147.67837891 27.84576172 148.25910156 28.35558594 148.85742188 28.88085938 C156.9745226 36.05276145 164.2477358 43.1376216 170.09765625 52.3359375 C170.74863281 53.32851562 171.39960938 54.32109375 172.0703125 55.34375 C194.96394771 91.25014511 201.7366084 134.22768375 192.54541016 175.8359375 C186.68191627 201.22971554 173.67409727 231.56644883 151.99926758 247.63256836 C148.09005434 251.57173497 148.40904981 255.71921883 148.3936615 261.03541565 C148.43083031 262.93407631 148.43083031 262.93407631 148.46875 264.87109375 C148.46592658 266.8747157 148.46307616 268.87833805 148.45862675 270.88195705 C148.45923379 274.38766711 148.49956744 277.89294005 148.53515625 281.3984375 C148.5737965 285.58658508 148.60353181 289.7741648 148.59645081 293.96250916 C148.59467951 296.5669011 148.61596726 299.17143273 148.66270447 301.77540588 C148.66041301 311.55115845 148.66041301 311.55115845 145.77758789 314.60717773 C142.33240265 316.82958428 140.20912988 317.40682498 136.09765625 317.3359375 C131.3247929 314.86818207 126.99239847 311.94701228 122.66015625 308.7734375 C111.00036828 300.34280612 99.0906004 292.28345294 87.09765625 284.3359375 C86.47196306 283.84859509 85.84626987 283.36125267 85.20161629 282.8591423 C79.34372879 278.49900195 75.07316178 277.47255659 67.85888672 277.59472656 C66.8770491 277.58730942 65.89521149 277.57989227 64.88362122 277.57225037 C61.66010963 277.55444787 58.43829605 277.57815326 55.21484375 277.6015625 C52.9543462 277.59538069 50.69385493 277.58627843 48.43338013 277.57440186 C42.49110654 277.54970906 36.54939613 277.55887696 30.6071167 277.57696533 C21.11975675 277.60038619 11.63243406 277.57295463 2.1451149 277.54424286 C-1.14662437 277.53917945 -4.43805186 277.54891234 -7.72976685 277.56109619 C-41.09860242 277.60132064 -66.2145377 269.84377511 -91.90234375 248.3359375 C-92.89234375 247.5521875 -93.88234375 246.7684375 -94.90234375 245.9609375 C-98.08332186 243.17758165 -100.59195313 240.30152486 -103.15234375 236.9609375 C-103.62196533 236.3515332 -104.09158691 235.74212891 -104.57543945 235.11425781 C-106.03390367 233.19964136 -107.47258952 231.27207325 -108.90234375 229.3359375 C-109.34690918 228.73426758 -109.79147461 228.13259766 -110.24951172 227.51269531 C-133.22920817 195.92743352 -141.19833773 154.29611832 -135.31079102 116.02172852 C-129.60680592 82.29505593 -114.91367157 49.28709573 -87.90234375 27.3359375 C-86.46761719 26.08296875 -86.46761719 26.08296875 -85.00390625 24.8046875 C-71.424357 13.4942146 -54.15650969 5.96685809 -36.90234375 2.3359375 C-36.10424789 2.1652475 -35.30615204 1.9945575 -34.48387146 1.81869507 C-23.06156284 -0.26441892 -11.57154722 0.00757802 0 0 Z " fill="#0DB3FC" transform="translate(216.90234375,98.6640625)"/>
<path d="M0 0 C2.32768329 -0.00644279 4.6553658 -0.01317219 6.98304749 -0.02017212 C11.8504524 -0.03210071 16.7177866 -0.03585772 21.58520508 -0.03466797 C27.76070162 -0.03446553 33.93573411 -0.0617102 40.11112118 -0.09621239 C44.91846208 -0.11867774 49.72569499 -0.12249948 54.53308296 -0.12144852 C56.80639804 -0.12377728 59.07971739 -0.13244287 61.35297966 -0.14811325 C83.8515708 -0.28863886 103.75946521 2.40055947 124.09765625 12.3359375 C125.04705078 12.79105713 125.04705078 12.79105713 126.015625 13.25537109 C133.8577693 17.05949153 140.58404892 21.56674244 147.09765625 27.3359375 C147.67837891 27.84576172 148.25910156 28.35558594 148.85742188 28.88085938 C156.9745226 36.05276145 164.2477358 43.1376216 170.09765625 52.3359375 C170.74863281 53.32851562 171.39960938 54.32109375 172.0703125 55.34375 C194.96394771 91.25014511 201.7366084 134.22768375 192.54541016 175.8359375 C186.68191627 201.22971554 173.67409727 231.56644883 151.99926758 247.63256836 C148.09005434 251.57173497 148.40904981 255.71921883 148.3936615 261.03541565 C148.43083031 262.93407631 148.43083031 262.93407631 148.46875 264.87109375 C148.46592658 266.8747157 148.46307616 268.87833805 148.45862675 270.88195705 C148.45923379 274.38766711 148.49956744 277.89294005 148.53515625 281.3984375 C148.5737965 285.58658508 148.60353181 289.7741648 148.59645081 293.96250916 C148.59467951 296.5669011 148.61596726 299.17143273 148.66270447 301.77540588 C148.66041301 311.55115845 148.66041301 311.55115845 145.77758789 314.60717773 C142.33240265 316.82958428 140.20912988 317.40682498 136.09765625 317.3359375 C131.3247929 314.86818207 126.99239847 311.94701228 122.66015625 308.7734375 C111.00036828 300.34280612 99.0906004 292.28345294 87.09765625 284.3359375 C86.47196306 283.84859509 85.84626987 283.36125267 85.20161629 282.8591423 C79.34372879 278.49900195 75.07316178 277.47255659 67.85888672 277.59472656 C66.8770491 277.58730942 65.89521149 277.57989227 64.88362122 277.57225037 C61.66010963 277.55444787 58.43829605 277.57815326 55.21484375 277.6015625 C52.9543462 277.59538069 50.69385493 277.58627843 48.43338013 277.57440186 C42.49110654 277.54970906 36.54939613 277.55887696 30.6071167 277.57696533 C21.11975675 277.60038619 11.63243406 277.57295463 2.1451149 277.54424286 C-1.14662437 277.53917945 -4.43805186 277.54891234 -7.72976685 277.56109619 C-41.09860242 277.60132064 -66.2145377 269.84377511 -91.90234375 248.3359375 C-92.89234375 247.5521875 -93.88234375 246.7684375 -94.90234375 245.9609375 C-98.08332186 243.17758165 -100.59195313 240.30152486 -103.15234375 236.9609375 C-103.62196533 236.3515332 -104.09158691 235.74212891 -104.57543945 235.11425781 C-106.03390367 233.19964136 -107.47258952 231.27207325 -108.90234375 229.3359375 C-109.34690918 228.73426758 -109.79147461 228.13259766 -110.24951172 227.51269531 C-133.22920817 195.92743352 -141.19833773 154.29611832 -135.31079102 116.02172852 C-129.60680592 82.29505593 -114.91367157 49.28709573 -87.90234375 27.3359375 C-86.46761719 26.08296875 -86.46761719 26.08296875 -85.00390625 24.8046875 C-71.424357 13.4942146 -54.15650969 5.96685809 -36.90234375 2.3359375 C-36.10424789 2.1652475 -35.30615204 1.9945575 -34.48387146 1.81869507 C-23.06156284 -0.26441892 -11.57154722 0.00757802 0 0 Z M-78.90234375 46.3359375 C-79.52625 46.88765625 -80.15015625 47.439375 -80.79296875 48.0078125 C-86.57011949 53.46101086 -91.19777752 59.96679883 -95.90234375 66.3359375 C-96.47210938 67.08746094 -97.041875 67.83898437 -97.62890625 68.61328125 C-115.82010808 93.95450091 -120.20573018 130.84026752 -116.28515625 160.9609375 C-112.45561824 184.19255955 -102.30060577 209.16248492 -85.90234375 226.3359375 C-85.19335938 226.6865625 -84.484375 227.0371875 -83.75390625 227.3984375 C-81.33382664 228.62379426 -81.04189709 229.91829688 -79.90234375 232.3359375 C-66.34516007 246.78700142 -44.39979594 256.76636555 -24.52018738 257.41348076 C-21.70096953 257.42793392 -18.88357037 257.41067338 -16.06445312 257.38256836 C-13.84891943 257.36979859 -11.63338382 257.3573576 -9.41784668 257.34519958 C-8.24995102 257.33728331 -7.08205536 257.32936703 -5.87876892 257.32121086 C1.64885177 257.27887667 9.17663648 257.29093891 16.70435333 257.29109859 C23.30297203 257.28810429 29.90064465 257.26745852 36.49902344 257.20922852 C42.90071467 257.15380036 49.30082504 257.14768537 55.7026825 257.17392159 C58.12975134 257.17514935 60.55690001 257.15886203 62.98371887 257.12400627 C78.48894849 256.91310584 88.20628261 258.1424315 100.09765625 268.3359375 C102.27313376 269.91105448 104.49216107 271.40050498 106.72265625 272.8984375 C110.06656019 275.21886651 113.40248663 277.54974224 116.7265625 279.8984375 C117.32194824 280.31665771 117.91733398 280.73487793 118.53076172 281.16577148 C120.19479738 282.33494989 121.85531522 283.50913036 123.515625 284.68359375 C125.86750892 286.51561001 125.86750892 286.51561001 128.09765625 286.3359375 C128.1116748 284.47461182 128.1116748 284.47461182 128.12597656 282.57568359 C128.16594908 277.95715884 128.23172832 273.33929512 128.30517578 268.72119141 C128.33334328 266.72518425 128.35457877 264.72906644 128.36865234 262.73291016 C128.39014028 259.85782386 128.43682051 256.98406221 128.48828125 254.109375 C128.48950989 253.22164398 128.49073853 252.33391296 128.49200439 251.41928101 C128.62396508 245.79504637 129.41953234 242.65691554 133.09765625 238.3359375 C133.75765625 238.0059375 134.41765625 237.6759375 135.09765625 237.3359375 C135.09765625 236.6759375 135.09765625 236.0159375 135.09765625 235.3359375 C135.65453125 235.1090625 136.21140625 234.8821875 136.78515625 234.6484375 C147.55040381 228.53843213 155.16645678 214.75016671 161.09765625 204.3359375 C161.90009766 202.93794922 161.90009766 202.93794922 162.71875 201.51171875 C180.44136535 168.5062247 179.81488185 131.3383648 170.23046875 96.15234375 C161.94929815 69.14693342 143.51498188 45.50891178 118.66015625 32.0234375 C104.57006919 24.68454818 90.55972846 21.02178931 74.69799805 21.0612793 C73.61672638 21.05616837 72.53545471 21.05105743 71.42141724 21.04579163 C67.87984538 21.03199707 64.33847038 21.03284486 60.796875 21.03515625 C58.31264678 21.03126357 55.82841922 21.02692773 53.3441925 21.02217102 C48.14879189 21.01473042 42.95345926 21.01498427 37.75805664 21.02026367 C31.13115341 21.02605322 24.50453014 21.00912881 17.87767315 20.985919 C12.74982604 20.97111966 7.62204537 20.97031842 2.49418068 20.97342873 C0.05238097 20.97291856 -2.38942277 20.9677387 -4.83120155 20.95761681 C-33.67838028 20.85270497 -56.77471821 26.74523718 -78.90234375 46.3359375 Z " fill="#264C64" transform="translate(216.90234375,98.6640625)"/>
<path d="M0 0 C7.32939506 3.89629552 12.1139739 8.54396831 15.0625 16.375 C17.25243564 23.72377731 16.61543211 31.00204843 13.52734375 37.98046875 C9.48389278 44.59016328 2.62387759 49.78603497 -4.82421875 51.9140625 C-12.89848406 53.67517767 -18.95882138 52.15086878 -26.1640625 48.21484375 C-32.40170479 44.07691485 -36.84963992 38.62110263 -38.9375 31.375 C-40.05093451 22.3561805 -38.1720402 14.24338686 -32.5625 7 C-23.82267319 -1.73982681 -11.74177013 -4.85030091 0 0 Z " fill="#FBFDFB" transform="translate(258.9375,217.625)"/>
<path d="M0 0 C6.61896724 6.80282744 8.58349868 14.27504946 8.4609375 23.50390625 C7.91382615 30.78859256 4.46439456 37.2284653 -0.75 42.3125 C-8.08915334 47.06413133 -16.00038867 49.49300312 -24.75 48.3125 C-33.28623546 45.60363271 -39.40380259 40.00216226 -43.91015625 32.33984375 C-46.768456 25.86546246 -46.95622896 18.84723688 -44.68359375 12.1875 C-41.37089905 4.96636713 -37.27306391 -1.13394953 -29.8828125 -4.55078125 C-19.02543569 -7.86205592 -9.38935224 -5.76164796 0 0 Z " fill="#F9FDFB" transform="translate(340.75,221.6875)"/>
<path d="M0 0 C6.10891315 4.01816212 10.34220915 8.78860978 12 16 C12.87852572 24.41920483 13.14579805 32.89937364 8 40 C2.52210533 45.94409847 -3.85244661 50.27042654 -12.0078125 51.23828125 C-19.83072726 51.51251627 -26.58478424 49.13021898 -32.8125 44.375 C-39.08744189 38.38257919 -41.3059188 31.97047009 -41.5625 23.375 C-41.34904656 17.32511975 -40.54820926 12.91855215 -37 8 C-36.38125 7.0925 -35.7625 6.185 -35.125 5.25 C-26.10725355 -4.29820212 -11.58172587 -6.06045618 0 0 Z " fill="#F9FDFB" transform="translate(187,219)"/>
<path d="M0 0 C1.62322174 -0.00744736 1.62322174 -0.00744736 3.27923584 -0.01504517 C6.85274904 -0.02962661 10.42621781 -0.03646314 13.99975586 -0.04199219 C16.49352519 -0.04774819 18.98729452 -0.05350587 21.48106384 -0.05926514 C26.71052252 -0.06976458 31.93996587 -0.07561375 37.16943359 -0.07910156 C43.84477017 -0.08378981 50.51987246 -0.10858404 57.19515324 -0.13707352 C62.34869462 -0.15577271 67.50218738 -0.16090943 72.65575981 -0.16243744 C75.1151383 -0.1654495 77.57451622 -0.17342868 80.03386116 -0.18662262 C104.47540843 -0.30835727 104.47540843 -0.30835727 115.15209961 3.16113281 C116.39604492 3.51433594 117.63999023 3.86753906 118.92163086 4.23144531 C130.94913024 8.40015498 142.95828027 14.19715895 152.15209961 23.16113281 C151.16209961 23.49113281 150.17209961 23.82113281 149.15209961 24.16113281 C147.44459981 22.88050797 145.77836365 21.54345724 144.15209961 20.16113281 C143.16209961 19.83113281 142.17209961 19.50113281 141.15209961 19.16113281 C141.15209961 18.50113281 141.15209961 17.84113281 141.15209961 17.16113281 C138.51209961 16.83113281 135.87209961 16.50113281 133.15209961 16.16113281 C132.16209961 13.68613281 132.16209961 13.68613281 131.15209961 11.16113281 C129.17209961 11.49113281 127.19209961 11.82113281 125.15209961 12.16113281 C124.71897461 11.50113281 124.28584961 10.84113281 123.83959961 10.16113281 C123.28272461 9.50113281 122.72584961 8.84113281 122.15209961 8.16113281 C121.16209961 8.16113281 120.17209961 8.16113281 119.15209961 8.16113281 C119.15209961 7.50113281 119.15209961 6.84113281 119.15209961 6.16113281 C118.01772461 6.01675781 116.88334961 5.87238281 115.71459961 5.72363281 C112.15209961 5.16113281 112.15209961 5.16113281 111.15209961 4.16113281 C108.4815111 4.0199812 105.82777723 4.11866174 103.15209961 4.16113281 C103.15209961 4.82113281 103.15209961 5.48113281 103.15209961 6.16113281 C102.16209961 6.16113281 101.17209961 6.16113281 100.15209961 6.16113281 C100.15209961 5.17113281 100.15209961 4.18113281 100.15209961 3.16113281 C93.46882212 2.29921576 86.94965849 2.00773481 80.21459961 2.03613281 C79.27036133 2.03226562 78.32612305 2.02839844 77.35327148 2.02441406 C76.00265625 2.02634766 76.00265625 2.02634766 74.62475586 2.02832031 C73.40671265 2.03001221 73.40671265 2.03001221 72.1640625 2.03173828 C70.08073529 2.03477861 70.08073529 2.03477861 68.15209961 3.16113281 C65.81759764 2.83608494 63.48449357 2.50097683 61.15209961 2.16113281 C58.25838373 2.01844259 55.36922667 2.02067359 52.47241211 2.02832031 C51.25411209 2.02688522 51.25411209 2.02688522 50.01119995 2.02542114 C48.30181805 2.02474411 46.59243352 2.02656495 44.88305664 2.03076172 C42.29168811 2.03610274 39.70049397 2.03080763 37.10913086 2.02441406 C35.43855757 2.0250752 33.76798438 2.0263571 32.09741211 2.02832031 C31.33461945 2.02629608 30.57182678 2.02427185 29.78591919 2.02218628 C25.18753619 2.0418399 20.73030352 2.37004353 16.1725769 2.98977661 C13.53923373 3.21310982 11.05111817 2.82358167 8.44897461 2.42285156 C0.91546324 1.56444125 -7.43275825 1.48223271 -14.84790039 3.16113281 C-16.43784369 5.08178075 -16.43784369 5.08178075 -16.84790039 7.16113281 C-16.84790039 6.17113281 -16.84790039 5.18113281 -16.84790039 4.16113281 C-17.6793457 4.37769531 -18.51079102 4.59425781 -19.36743164 4.81738281 C-20.45411133 5.09582031 -21.54079102 5.37425781 -22.66040039 5.66113281 C-23.7393457 5.93957031 -24.81829102 6.21800781 -25.92993164 6.50488281 C-28.84790039 7.16113281 -28.84790039 7.16113281 -31.84790039 7.16113281 C-32.11602539 7.80050781 -32.38415039 8.43988281 -32.66040039 9.09863281 C-33.84790039 11.16113281 -33.84790039 11.16113281 -36.84790039 12.16113281 C-37.17790039 12.82113281 -37.50790039 13.48113281 -37.84790039 14.16113281 C-37.18790039 14.49113281 -36.52790039 14.82113281 -35.84790039 15.16113281 C-36.89977539 14.93425781 -37.95165039 14.70738281 -39.03540039 14.47363281 C-42.72669893 13.89975565 -42.72669893 13.89975565 -45.53540039 15.16113281 C-48.616065 17.8254914 -50.00199996 20.53769863 -51.84790039 24.16113281 C-52.83790039 23.83113281 -53.82790039 23.50113281 -54.84790039 23.16113281 C-55.13665039 23.73863281 -55.42540039 24.31613281 -55.72290039 24.91113281 C-56.09415039 25.65363281 -56.46540039 26.39613281 -56.84790039 27.16113281 C-57.13665039 27.88300781 -57.42540039 28.60488281 -57.72290039 29.34863281 C-59.19503244 31.72040112 -60.21481001 31.52280787 -62.84790039 32.16113281 C-64.9445072 34.49069593 -65.84831743 36.16238394 -66.84790039 39.16113281 C-67.83790039 39.16113281 -68.82790039 39.16113281 -69.84790039 39.16113281 C-73.66915292 41.43762368 -76.82359225 43.90418558 -79.84790039 47.16113281 C-78.33081698 42.37648513 -75.65582303 39.18428875 -72.41040039 35.47363281 C-71.87471436 34.85858887 -71.33902832 34.24354492 -70.78710938 33.60986328 C-52.3154457 12.72554084 -28.07429564 0.03093034 0 0 Z " fill="#2EBBEE" transform="translate(200.847900390625,119.8388671875)"/>
<path d="M0 0 C0.33 0.66 0.66 1.32 1 2 C6.8724613 4.17025744 13.4797719 4.23876129 19.67431641 4.55029297 C20.50524622 4.59268538 21.33617603 4.63507778 22.19228554 4.67875481 C31.24042138 5.10663163 40.27949174 5.14523867 49.3359375 5.1328125 C51.11609917 5.13348915 52.89626076 5.13446214 54.67642212 5.13571167 C58.36876321 5.13716942 62.06107978 5.13509547 65.75341797 5.13037109 C70.44973366 5.12464961 75.14599248 5.12798037 79.84230614 5.13394356 C83.50404275 5.13758011 87.16576616 5.13639688 90.8275032 5.13381577 C92.55839673 5.13315634 94.28929152 5.13393979 96.02018356 5.13629532 C104.85682659 5.1456961 113.54813666 5.04306176 122.34414673 4.04928589 C126.85873035 3.96550669 129.35378162 5.40557538 133 8 C133.703125 10.14453125 133.703125 10.14453125 134 12 C133.23151733 11.51293579 132.46303467 11.02587158 131.67126465 10.52404785 C126.76098638 8.48564971 122.52372437 8.58299021 117.25976562 8.61523438 C116.18897766 8.6098616 115.1181897 8.60448883 114.01495361 8.59895325 C111.69385073 8.58918492 109.37271136 8.58622823 107.05158997 8.58930969 C103.36734719 8.59379739 99.68358235 8.57975679 95.99938965 8.56091309 C88.1662676 8.52414318 80.3331956 8.51043754 72.5 8.5 C63.44623287 8.48788859 54.39269825 8.46611791 45.33903503 8.41999817 C41.72873566 8.4065206 38.11873711 8.41058351 34.50842285 8.41540527 C20.8454087 8.38303561 9.01610283 7.43863495 -4 3 C-2.68 2.01 -1.36 1.02 0 0 Z " fill="#1594D3" transform="translate(174,348)"/>
<path d="M0 0 C-0.66 1.32 -1.32 2.64 -2 4 C-2.66 4 -3.32 4 -4 4 C-4 4.66 -4 5.32 -4 6 C-5.6454378 7.68762851 -7.31288577 9.3540349 -9 11 C-10.13019427 13.26038854 -10.15268957 14.57118826 -10.20532227 17.08251953 C-10.22526749 17.92324005 -10.24521271 18.76396057 -10.26576233 19.63015747 C-10.29083107 20.99272171 -10.29083107 20.99272171 -10.31640625 22.3828125 C-10.33718735 23.31221649 -10.35796844 24.24162048 -10.37937927 25.19918823 C-10.44487646 28.1743821 -10.50376052 31.14966577 -10.5625 34.125 C-10.60568506 36.13933228 -10.64929934 38.15365541 -10.69335938 40.16796875 C-10.80055803 45.11188663 -10.90182501 50.05589503 -11 55 C-14.46973899 53.65739453 -17.29889127 52.25178237 -20.3125 50.0625 C-24.92464892 46.76117235 -29.57379315 43.52206127 -34.25 40.3125 C-34.92329346 39.8491626 -35.59658691 39.3858252 -36.2902832 38.90844727 C-37.26807739 38.23640259 -37.26807739 38.23640259 -38.265625 37.55078125 C-38.89275391 37.11975098 -39.51988281 36.6887207 -40.16601562 36.24462891 C-41.92505897 35.05085855 -43.70230002 33.88944424 -45.484375 32.73046875 C-46.31453125 32.15941406 -47.1446875 31.58835937 -48 31 C-48 30.67 -48 30.34 -48 30 C-43.86001651 29.67529541 -41.66000999 29.5695587 -38.125 31.875 C-36 34 -36 34 -35 36 C-34.21625 36.45375 -33.4325 36.9075 -32.625 37.375 C-30 39 -30 39 -28.75 40.9375 C-24.90460826 45.46956884 -18.64919486 46.92443738 -13 48 C-13.01571045 46.94087402 -13.0314209 45.88174805 -13.04760742 44.79052734 C-13.10210122 40.84333974 -13.13642046 36.89618511 -13.16479492 32.94873047 C-13.17983738 31.24359537 -13.20027653 29.53849868 -13.22631836 27.83349609 C-13.26290284 25.37587988 -13.27977173 22.91877731 -13.29296875 20.4609375 C-13.30845261 19.70444916 -13.32393646 18.94796082 -13.33988953 18.16854858 C-13.34166206 12.53400983 -12.1743918 8.40171458 -8.28125 4.1015625 C-7.6934375 3.61429687 -7.105625 3.12703125 -6.5 2.625 C-5.9121875 2.12226563 -5.324375 1.61953125 -4.71875 1.1015625 C-3 0 -3 0 0 0 Z " fill="#1A8DCB" transform="translate(356,330)"/>
<path d="M0 0 C1.07174763 3.65188082 0.76411467 6.26432828 0 10 C-0.66 10 -1.32 10 -2 10 C-1.67 13.3 -1.34 16.6 -1 20 C-1.99 19.67 -2.98 19.34 -4 19 C-3.979375 20.134375 -3.95875 21.26875 -3.9375 22.4375 C-4 26 -4 26 -5 27 C-5.03210525 30.20593871 -4.93140462 33.40083832 -4.83984375 36.60546875 C-5 40 -5 40 -5.9921875 42.8671875 C-7.31127265 46.96759947 -7.25491332 50.66207597 -7.1875 54.9375 C-7.18685547 55.71029297 -7.18621094 56.48308594 -7.18554688 57.27929688 C-7.30289091 65.35339846 -7.30289091 65.35339846 -4.98681641 72.90966797 C-3.86752958 75.28060656 -3.7210215 77.02072605 -3.59765625 79.62890625 C-3.13561388 85.16224449 -1.49869996 89.81511199 0.5625 94.9375 C1.21387144 96.59078524 1.86119735 98.24567175 2.50390625 99.90234375 C2.79080322 100.61898193 3.0777002 101.33562012 3.37329102 102.07397461 C4 104 4 104 4 107 C4.66 107 5.32 107 6 107 C6.18175781 107.54269531 6.36351563 108.08539063 6.55078125 108.64453125 C6.80214844 109.35996094 7.05351563 110.07539063 7.3125 110.8125 C7.55613281 111.52019531 7.79976562 112.22789062 8.05078125 112.95703125 C8.88548537 115.06788069 8.88548537 115.06788069 10.5625 116.53125 C12.90591154 118.92560527 12.69633331 121.7811331 13 125 C2.80583462 112.87780769 -1.58797007 96.928955 -6 82 C-6.21205078 81.28650391 -6.42410156 80.57300781 -6.64257812 79.83789062 C-14.0060407 53.61744273 -8.57346078 25.15818818 0 0 Z " fill="#22A5E1" transform="translate(109,188)"/>
<path d="M0 0 C3.53065155 5.29597733 4.46559563 11.86869692 6 18 C6.22042969 18.87011719 6.44085938 19.74023438 6.66796875 20.63671875 C13.9187513 51.00277799 7.51308244 87.23358678 -8.375 113.9375 C-9.23843466 115.29907003 -10.1085973 116.65657394 -11 118 C-11.58203125 116.15625 -11.58203125 116.15625 -12 114 C-10.6875 111.5 -10.6875 111.5 -9 109 C-8.31903578 107.67391178 -7.64669414 106.34313399 -7 105 C-6.34 105 -5.68 105 -5 105 C-4.81824219 104.21496094 -4.63648438 103.42992187 -4.44921875 102.62109375 C-4.19785156 101.57050781 -3.94648438 100.51992188 -3.6875 99.4375 C-3.44386719 98.40496094 -3.20023437 97.37242187 -2.94921875 96.30859375 C-2 93 -2 93 -0.52734375 89.77734375 C1.55831727 85.0941752 2.26230332 80.14934544 3.125 75.125 C3.45756177 73.23117494 3.79332155 71.3379077 4.1328125 69.4453125 C4.27605957 68.61531738 4.41930664 67.78532227 4.56689453 66.93017578 C5 65 5 65 6 64 C6.099428 62.6265804 6.13080247 61.2481062 6.1328125 59.87109375 C6.13482666 59.00774414 6.13684082 58.14439453 6.13891602 57.25488281 C6.13202759 55.86027832 6.13202759 55.86027832 6.125 54.4375 C6.12101196 53.02549316 6.12101196 53.02549316 6.11694336 51.58496094 C7.01953271 37.99941786 7.01953271 37.99941786 4 26 C3.55244569 22.63770123 3.17888746 19.27672978 2.83789062 15.90234375 C2.4273108 12.23716777 2.08071813 10.12107719 0 7 C-0.07905064 4.66800612 -0.08798769 2.33167378 0 0 Z " fill="#21A2DB" transform="translate(385,192)"/>
<path d="M0 0 C2.54055845 0.25552438 5.03852505 0.56707159 7.5625 0.9375 C8.27341797 1.03740234 8.98433594 1.13730469 9.71679688 1.24023438 C11.47856957 1.48853791 13.23938152 1.74364039 15 2 C15 2.66 15 3.32 15 4 C15.886875 4.103125 16.77375 4.20625 17.6875 4.3125 C21.06422234 5.01332917 23.14561448 6.12426094 26 8 C26.33 8 26.66 8 27 8 C27 9.65 27 11.3 27 13 C28.32 12.01 29.64 11.02 31 10 C32 11 32 11 32.0625 13.46875 C32.02083333 15.48958333 31.97916667 17.51041667 31.9375 19.53125 C31.71492704 21.94458856 31.71492704 21.94458856 33 23 C33.23678716 25.69235776 33.42198025 28.36498156 33.5625 31.0625 C33.60568359 31.82111328 33.64886719 32.57972656 33.69335938 33.36132812 C33.79973633 35.24065438 33.90039934 37.12030244 34 39 C33.3503125 39.2784375 32.700625 39.556875 32.03125 39.84375 C31.3609375 40.2253125 30.690625 40.606875 30 41 C29.835 41.825 29.67 42.65 29.5 43.5 C29.335 44.325 29.17 45.15 29 46 C26.9375 47.3125 26.9375 47.3125 25 48 C25.268125 47.34 25.53625 46.68 25.8125 46 C26.204375 45.01 26.59625 44.02 27 43 C27.53625 41.80375 28.0725 40.6075 28.625 39.375 C31.53313513 31.44101083 30.61768257 23.76482404 27.20703125 16.16015625 C25.55445371 13.20263074 23.60495646 11.14908908 21 9 C20.360625 8.443125 19.72125 7.88625 19.0625 7.3125 C12.07272087 2.86445874 3.68393564 3.01779289 -4.22265625 4.67578125 C-6.84040071 5.38848329 -9.42447176 6.1482505 -12 7 C-11.28515625 5.07421875 -11.28515625 5.07421875 -10 3 C-7.87109375 2.20703125 -7.87109375 2.20703125 -5.4375 1.8125 C-2.42908246 1.49507178 -2.42908246 1.49507178 0 0 Z " fill="#27B1E8" transform="translate(318,213)"/>
<path d="M0 0 C0.85671295 0.21348083 1.7134259 0.42696167 2.59609985 0.64691162 C14.46690908 3.26209805 26.00827039 3.37294481 38.12797165 3.28842926 C41.78671484 3.26514271 45.44486065 3.2643494 49.10366821 3.26971436 C59.49358402 3.2822973 69.88317088 3.26523837 80.27294922 3.20947266 C86.65882178 3.17676508 93.04395337 3.17807953 99.42985916 3.20049286 C101.8498656 3.20223511 104.26991891 3.19105623 106.68980026 3.16638947 C110.07317378 3.13268471 113.45396972 3.14226419 116.83740234 3.16113281 C117.82359558 3.14060349 118.80978882 3.12007416 119.8258667 3.09892273 C127.5802541 3.21279659 132.12258598 6.08293167 138 11 C137.34 11.33 136.68 11.66 136 12 C134.16015625 11.29296875 134.16015625 11.29296875 132.0625 10.1875 C131.37285156 9.83042969 130.68320312 9.47335937 129.97265625 9.10546875 C128.26786394 8.15010989 126.6260203 7.08401354 125 6 C122.80106636 5.69787773 122.80106636 5.69787773 120.33395386 5.74171448 C119.37520859 5.73488647 118.41646332 5.72805847 117.42866516 5.72102356 C116.37825546 5.72357651 115.32784576 5.72612946 114.24560547 5.72875977 C113.13796341 5.72353302 112.03032135 5.71830627 110.88911438 5.71292114 C108.47954605 5.70266677 106.06995549 5.69689825 103.66036606 5.69503975 C99.84338761 5.69138345 96.02667072 5.6746749 92.20974731 5.65428162 C82.72412302 5.60580422 73.23846919 5.57427492 63.75274658 5.55297852 C55.74772352 5.53497378 47.74293523 5.50550519 39.73801041 5.45893669 C37.21116212 5.44730512 34.68428091 5.4413565 32.15740585 5.44125557 C28.61499706 5.44106284 25.07309202 5.42274452 21.53076172 5.40063477 C20.49249741 5.40521194 19.45423309 5.40978912 18.38450623 5.414505 C12.25219844 5.35386586 6.55690495 4.80174936 1 2 C0.67 1.34 0.34 0.68 0 0 Z " fill="#105677" transform="translate(174,352)"/>
<path d="M0 0 C1 3 1 3 0.4375 4.875 C-1.56917793 7.84139346 -4.23242895 9.75134852 -7 12 C-7.99 13.485 -7.99 13.485 -9 15 C-9.99 15 -10.98 15 -12 15 C-12.33 16.65 -12.66 18.3 -13 20 C-13.99 20.33 -14.98 20.66 -16 21 C-17.3389802 23.67796041 -17.09568573 25.71224931 -17.0625 28.70703125 C-17.05476563 29.85107422 -17.04703125 30.99511719 -17.0390625 32.17382812 C-17.01314662 34.58789198 -16.98710618 37.0019545 -16.9609375 39.41601562 C-16.95320313 40.56392578 -16.94546875 41.71183594 -16.9375 42.89453125 C-16.92589844 43.94487549 -16.91429687 44.99521973 -16.90234375 46.07739258 C-16.99475504 48.84303134 -17.40483016 51.30524375 -18 54 C-18.01760567 55.39587778 -17.99954259 56.79289058 -17.9375 58.1875 C-18 62 -18 62 -20 64 C-20.09911689 58.12846769 -20.17158611 52.25742587 -20.21972656 46.38525391 C-20.23980169 44.38907382 -20.26706789 42.39295225 -20.30175781 40.39697266 C-20.35045657 37.5223138 -20.37300986 34.6484346 -20.390625 31.7734375 C-20.41127014 30.88570648 -20.43191528 29.99797546 -20.45318604 29.08334351 C-20.45516292 23.58423582 -19.78978233 20.2953718 -16 16 C-15.01 15.67 -14.02 15.34 -13 15 C-13 14.34 -13 13.68 -13 13 C-11.42578125 11.484375 -11.42578125 11.484375 -9.3125 9.75 C-5.76035397 6.74045531 -2.86029631 3.66475465 0 0 Z " fill="#174F74" transform="translate(365,321)"/>
<path d="M0 0 C1.485 0.495 1.485 0.495 3 1 C2.28714844 1.81082031 1.57429688 2.62164062 0.83984375 3.45703125 C-17.01920285 23.99368509 -26.69267861 47.97120109 -30 75 C-30.33 75 -30.66 75 -31 75 C-30.82617 63.25857375 -28.72459991 53.11578415 -25 42 C-24.65839844 40.88882813 -24.31679687 39.77765625 -23.96484375 38.6328125 C-23 36 -23 36 -21 34 C-20.28072705 31.68234271 -19.6090107 29.34904126 -19 27 C-18.34 27 -17.68 27 -17 27 C-16.9175 26.34 -16.835 25.68 -16.75 25 C-15.76146107 21.0458443 -14.14741483 17.46827753 -12 14 C-11.34 13.67 -10.68 13.34 -10 13 C-9.67 12.01 -9.34 11.02 -9 10 C-7.69026002 8.6434836 -6.35197858 7.31442362 -5 6 C-3.29540541 4.0290625 -1.65036792 2.01711635 0 0 Z " fill="#125D80" transform="translate(131,149)"/>
<path d="M0 0 C3.875 1.7265625 3.875 1.7265625 5 4.1875 C5.33 5.115625 5.66 6.04375 6 7 C6.639375 8.010625 7.27875 9.02125 7.9375 10.0625 C10.32216858 14.12526869 11.23533532 18.3744135 12.2734375 22.9375 C12.94997513 25.78914247 13.77907309 28.52778948 14.6875 31.3125 C15.95259589 35.39111645 16.27728139 38.74835205 16 43 C16.66 43 17.32 43 18 43 C19.50611865 46.0122373 19.14216874 49.11907524 19.1328125 52.421875 C19.13424759 53.52828339 19.13424759 53.52828339 19.13571167 54.65704346 C19.13639282 56.22058192 19.13454308 57.7841232 19.13037109 59.34765625 C19.12505225 61.72662835 19.13030245 64.10540903 19.13671875 66.484375 C19.13605736 68.00520875 19.13477494 69.52604238 19.1328125 71.046875 C19.13483673 71.75334167 19.13686096 72.45980835 19.13894653 73.18768311 C19.12004516 77.22798762 18.77880767 81.03558282 18 85 C17.67 85 17.34 85 17 85 C17.01047363 84.25540527 17.02094727 83.51081055 17.03173828 82.74365234 C17.46352094 63.25982592 17.46352094 63.25982592 15 44 C14.86045898 43.33355469 14.72091797 42.66710937 14.57714844 41.98046875 C11.42567067 27.12636973 6.63409148 13.64088474 0 0 Z " fill="#0F5980" transform="translate(376,171)"/>
<path d="M0 0 C1.98 0 3.96 0 6 0 C9 5.75 9 5.75 9 8 C9.78375 8.309375 10.5675 8.61875 11.375 8.9375 C14 10 14 10 16 11 C16 11.99 16 12.98 16 14 C17.32 14.33 18.64 14.66 20 15 C20 15.66 20 16.32 20 17 C20.680625 17.268125 21.36125 17.53625 22.0625 17.8125 C25.39710809 19.16053306 28.69743237 20.57536298 32 22 C32 22.66 32 23.32 32 24 C34.31 24.66 36.62 25.32 39 26 C39 26.66 39 27.32 39 28 C39.99 28.33 40.98 28.66 42 29 C28.12018361 26.83127869 16.44942429 17.99774679 7 8 C7 7.34 7 6.68 7 6 C6.401875 5.7525 5.80375 5.505 5.1875 5.25 C2.71352479 3.83629988 1.56629745 2.34944617 0 0 Z " fill="#1A9DE2" transform="translate(128,321)"/>
<path d="M0 0 C-0.38671875 0.40089844 -0.7734375 0.80179688 -1.171875 1.21484375 C-7.51703722 8.14112231 -10.73674356 14.75754331 -10.40234375 24.28125 C-9.76049033 28.61843425 -7.99911162 32.14629085 -6 36 C-5.67 36.99 -5.34 37.98 -5 39 C-6.8671875 38.703125 -6.8671875 38.703125 -9 38 C-13.15800927 31.64069171 -15.02668943 24.60648768 -15 17 C-13.93180933 12.94672855 -12.54588208 9.35186484 -10 6 C-7.8203125 5.203125 -7.8203125 5.203125 -6 5 C-6 3.35 -6 1.7 -6 0 C-3 -1 -3 -1 0 0 Z " fill="#1CB1ED" transform="translate(306,221)"/>
<path d="M0 0 C0.495 1.485 0.495 1.485 1 3 C1.99 3 2.98 3 4 3 C4 3.66 4 4.32 4 5 C4.66 5 5.32 5 6 5 C6.66 6.65 7.32 8.3 8 10 C7.5153125 9.60167969 7.030625 9.20335937 6.53125 8.79296875 C-2.5862466 1.5866397 -10.26703224 -0.24731316 -22 1 C-25.01274942 1.92956667 -27.40874861 3.22451294 -30 5 C-30.598125 5.3815625 -31.19625 5.763125 -31.8125 6.15625 C-33.2283818 7.07395117 -34.61773052 8.03241136 -36 9 C-36 7.68 -36 6.36 -36 5 C-34.68 5 -33.36 5 -32 5 C-31.67 3.68 -31.34 2.36 -31 1 C-30.01 1.33 -29.02 1.66 -28 2 C-27.67 1.01 -27.34 0.02 -27 -1 C-18.46132711 -4.45180394 -8.3035088 -4.07626796 0 0 Z " fill="#26B1E1" transform="translate(262,216)"/>
<path d="M0 0 C-0.66 1.32 -1.32 2.64 -2 4 C-2.66 4 -3.32 4 -4 4 C-4 4.66 -4 5.32 -4 6 C-4.78375 6.763125 -5.5675 7.52625 -6.375 8.3125 C-11.10121054 13.15123937 -11.31492706 17.8266083 -11.4140625 24.36328125 C-11.43342865 25.15526413 -11.4527948 25.94724701 -11.4727478 26.76322937 C-11.53227232 29.27954519 -11.57881958 31.79590744 -11.625 34.3125 C-11.66320481 36.0241079 -11.70225799 37.73569709 -11.7421875 39.44726562 C-11.8379513 43.63135749 -11.9220818 47.81553931 -12 52 C-15.78630702 51.24432948 -17.4041044 49.87402727 -20 47 C-17.69 47.33 -15.38 47.66 -13 48 C-13.02356567 46.41131104 -13.02356567 46.41131104 -13.04760742 44.79052734 C-13.10210122 40.84333974 -13.13642046 36.89618511 -13.16479492 32.94873047 C-13.17983738 31.24359537 -13.20027653 29.53849868 -13.22631836 27.83349609 C-13.26290284 25.37587988 -13.27977173 22.91877731 -13.29296875 20.4609375 C-13.30845261 19.70444916 -13.32393646 18.94796082 -13.33988953 18.16854858 C-13.34166206 12.53400983 -12.1743918 8.40171458 -8.28125 4.1015625 C-7.6934375 3.61429687 -7.105625 3.12703125 -6.5 2.625 C-5.9121875 2.12226563 -5.324375 1.61953125 -4.71875 1.1015625 C-3 0 -3 0 0 0 Z " fill="#1AA2E9" transform="translate(356,330)"/>
<path d="M0 0 C0.98059134 3.19435057 0.96285837 5.8063445 0.75 9.125 C0.70308528 16.15282497 2.97808156 21.51317103 7.57421875 26.81640625 C11.79324718 30.74039773 16.66628107 32.94391787 22 35 C17.65580004 36.35390985 14.16184478 35.75090827 10 34 C8.5 31.875 8.5 31.875 8 30 C6.68 30 5.36 30 4 30 C3.87625 29.05125 3.7525 28.1025 3.625 27.125 C3.28312823 23.91332809 3.28312823 23.91332809 1 22 C1 21.01 1 20.02 1 19 C0.34 19 -0.32 19 -1 19 C-2.18681726 15.43954823 -2.09689832 12.56191663 -2.0625 8.8125 C-2.05347656 7.54019531 -2.04445312 6.26789063 -2.03515625 4.95703125 C-2.02355469 3.98121094 -2.01195312 3.00539062 -2 2 C-1.34 2 -0.68 2 0 2 C0 1.34 0 0.68 0 0 Z " fill="#37B1E1" transform="translate(220,234)"/>
<path d="M0 0 C0.49628906 0.39832031 0.99257813 0.79664063 1.50390625 1.20703125 C8.64636745 6.7773378 14.79739169 10.09769674 24 9 C30.8271338 7.63245301 36.33527013 5.00328675 42 1 C40.27845212 4.76488042 38.00765886 7.15063897 35 10 C34.01 9.67 33.02 9.34 32 9 C32 9.66 32 10.32 32 11 C22.00853397 12.37813325 14.41589738 11.64435895 5 8 C5 7.34 5 6.68 5 6 C3.68 5.67 2.36 5.34 1 5 C0.67 3.35 0.34 1.7 0 0 Z " fill="#29AEE1" transform="translate(301,260)"/>
<path d="M0 0 C7.91314425 0.3043517 16.3165414 3.3165414 22 9 C23.2065625 9.433125 23.2065625 9.433125 24.4375 9.875 C27 11 27 11 28.5625 13.125 C29.036875 13.74375 29.51125 14.3625 30 15 C31.32 15 32.64 15 34 15 C34 15.66 34 16.32 34 17 C34.66 17 35.32 17 36 17 C37.6875 19.375 37.6875 19.375 39 22 C38.67 22.66 38.34 23.32 38 24 C36.63681641 22.83984375 36.63681641 22.83984375 35.24609375 21.65625 C24.49915316 12.6843513 13.41710338 5.38109498 0 1 C0 0.67 0 0.34 0 0 Z " fill="#15597D" transform="translate(320,124)"/>
<path d="M0 0 C0.33 0 0.66 0 1 0 C1.01401855 1.2060791 1.01401855 1.2060791 1.02832031 2.43652344 C1.31673171 22.25773797 2.33861522 41.07331671 9.265625 59.8828125 C10 62 10 62 10 64 C9.34 64 8.68 64 8 64 C7.67 61.69 7.34 59.38 7 57 C6.34 57 5.68 57 5 57 C4.53658598 55.0845554 4.07963003 53.16754846 3.625 51.25 C3.36976562 50.18265625 3.11453125 49.1153125 2.8515625 48.015625 C2.56171874 46.67836752 2.27860917 45.3396432 2 44 C1.82065918 43.16114258 1.64131836 42.32228516 1.45654297 41.45800781 C-0.22447359 32.70836884 -0.23055209 24.11239211 -0.125 15.25 C-0.11493973 13.76302693 -0.10581932 12.27604719 -0.09765625 10.7890625 C-0.075908 7.19256677 -0.04155018 3.596328 0 0 Z " fill="#0C5A84" transform="translate(99,224)"/>
<path d="M0 0 C0.66 0 1.32 0 2 0 C1.86432299 5.42708047 -0.34509893 8.28134875 -3.89453125 12.1015625 C-9.78533729 17.41312416 -16.17285185 20.12800039 -24.0625 20.1875 C-25.34833984 20.20876953 -25.34833984 20.20876953 -26.66015625 20.23046875 C-29 20 -29 20 -32 18 C-23.585 17.505 -23.585 17.505 -15 17 C-15 16.34 -15 15.68 -15 15 C-12.09399739 13.74335022 -10.20395416 13 -7 13 C-7 12.01 -7 11.02 -7 10 C-6.06414062 9.89365234 -6.06414062 9.89365234 -5.109375 9.78515625 C-2.80770679 9.19995468 -2.80770679 9.19995468 -1.953125 6.93359375 C-1.72109375 6.10988281 -1.4890625 5.28617188 -1.25 4.4375 C-1.00765625 3.61121094 -0.7653125 2.78492188 -0.515625 1.93359375 C-0.34546875 1.29550781 -0.1753125 0.65742188 0 0 Z " fill="#BDF1F9" transform="translate(271,250)"/>
<path d="M0 0 C1.32 0 2.64 0 4 0 C4 0.66 4 1.32 4 2 C4.99 2.33 5.98 2.66 7 3 C10.19216283 11.4004285 10.67603686 22.49315554 7.5 30.9375 C7.005 31.948125 6.51 32.95875 6 34 C5.34 33.67 4.68 33.34 4 33 C4.32226562 32.16082031 4.64453125 31.32164062 4.9765625 30.45703125 C7.48143915 21.99590209 7.18385432 12.59581048 3.0703125 4.734375 C2.08251055 3.13370322 1.043353 1.5650295 0 0 Z " fill="#3EB3DE" transform="translate(192,223)"/>
<path d="M0 0 C-1.32451172 0.70962891 -1.32451172 0.70962891 -2.67578125 1.43359375 C-10.89609158 5.93026225 -17.87935835 10.88107574 -25 17 C-26.3241208 18.01216692 -27.65412089 19.01695005 -29 20 C-28.6875 18.0625 -28.6875 18.0625 -28 16 C-27.01 15.67 -26.02 15.34 -25 15 C-25.226875 14.401875 -25.45375 13.80375 -25.6875 13.1875 C-25.790625 12.465625 -25.89375 11.74375 -26 11 C-24.5625 9.25 -24.5625 9.25 -23 8 C-22.01 8.33 -21.02 8.66 -20 9 C-17.99651034 7.33752986 -15.99665598 5.67067133 -14 4 C-12.68 4 -11.36 4 -10 4 C-10 3.34 -10 2.68 -10 2 C-9.01 2 -8.02 2 -7 2 C-7 1.34 -7 0.68 -7 0 C-3.98968256 -0.93423645 -3.13349732 -1.04449911 0 0 Z " fill="#125E7E" transform="translate(163,129)"/>
<path d="M0 0 C1 3 1 3 0.4375 4.875 C-1.56917793 7.84139346 -4.23242895 9.75134852 -7 12 C-7.99 13.485 -7.99 13.485 -9 15 C-9.99 15 -10.98 15 -12 15 C-12.33 16.65 -12.66 18.3 -13 20 C-14.98 20.66 -16.96 21.32 -19 22 C-17.52307692 17.32307692 -17.52307692 17.32307692 -14.875 15.6875 C-14.25625 15.460625 -13.6375 15.23375 -13 15 C-13 14.34 -13 13.68 -13 13 C-11.42578125 11.484375 -11.42578125 11.484375 -9.3125 9.75 C-5.76035397 6.74045531 -2.86029631 3.66475465 0 0 Z " fill="#15577B" transform="translate(365,321)"/>
<path d="M0 0 C1 2 1 2 0.4765625 3.83984375 C0.19554687 4.53207031 -0.08546875 5.22429687 -0.375 5.9375 C-0.65085938 6.62714844 -0.92671875 7.31679687 -1.2109375 8.02734375 C-1.47132813 8.67832031 -1.73171875 9.32929688 -2 10 C-2.33 10.99 -2.66 11.98 -3 13 C-3.99 13 -4.98 13 -6 13 C-9.82125253 15.27649087 -12.97569186 17.74305277 -16 21 C-14.46738139 15.97109518 -11.41568577 12.66723028 -8 8.8125 C-7.18015625 7.86987305 -7.18015625 7.86987305 -6.34375 6.90820312 C-4.27951542 4.54293433 -2.22048555 2.22048555 0 0 Z " fill="#28BAE9" transform="translate(137,146)"/>
<path d="M0 0 C2.54055845 0.25552438 5.03852505 0.56707159 7.5625 0.9375 C8.27341797 1.03740234 8.98433594 1.13730469 9.71679688 1.24023438 C11.47856957 1.48853791 13.23938152 1.74364039 15 2 C15 2.66 15 3.32 15 4 C15.928125 4.12375 16.85625 4.2475 17.8125 4.375 C21 5 21 5 24 7 C23.67 7.99 23.34 8.98 23 10 C22.13375 9.38125 21.2675 8.7625 20.375 8.125 C12.6531812 3.26311409 4.63734516 2.8178658 -4.22265625 4.67578125 C-6.84040071 5.38848329 -9.42447176 6.1482505 -12 7 C-11.28515625 5.07421875 -11.28515625 5.07421875 -10 3 C-7.87109375 2.20703125 -7.87109375 2.20703125 -5.4375 1.8125 C-2.42908246 1.49507178 -2.42908246 1.49507178 0 0 Z " fill="#2CB1DE" transform="translate(318,213)"/>
<path d="M0 0 C3 1 3 1 4.1328125 3.1796875 C4.46023438 4.06914062 4.78765625 4.95859375 5.125 5.875 C5.45757812 6.75929687 5.79015625 7.64359375 6.1328125 8.5546875 C8.80386778 16.08658213 6.36433005 22.40853489 3.0625 29.5625 C1.58141011 32.64650104 0.14900401 33.67860166 -3 35 C-2.401875 34.175 -1.80375 33.35 -1.1875 32.5 C3.24916891 25.74236907 5.12244963 19.09345262 4 11 C2.89563121 7.22793516 1.53933682 3.61469271 0 0 Z " fill="#30B1E0" transform="translate(270,227)"/>
<path d="M0 0 C2.23008785 3.34513178 3.08880825 6.53946898 4.0625 10.375 C4.23587891 11.035 4.40925781 11.695 4.58789062 12.375 C5.94398342 17.59154086 7.13252049 22.45932458 7.09765625 27.86328125 C7.09282227 29.19262695 7.09282227 29.19262695 7.08789062 30.54882812 C7.07951172 31.46083984 7.07113281 32.37285156 7.0625 33.3125 C7.05798828 34.24384766 7.05347656 35.17519531 7.04882812 36.13476562 C7.03709234 38.42324373 7.02067363 40.71158808 7 43 C6.67 43 6.34 43 6 43 C5.93941406 41.85660156 5.87882812 40.71320313 5.81640625 39.53515625 C5.73201572 38.04425695 5.64736698 36.55337225 5.5625 35.0625 C5.52318359 34.30775391 5.48386719 33.55300781 5.44335938 32.77539062 C5.55961976 29.08055813 5.55961976 29.08055813 4 26 C3.55244569 22.63770123 3.17888746 19.27672978 2.83789062 15.90234375 C2.4273108 12.23716777 2.08071813 10.12107719 0 7 C-0.07905064 4.66800612 -0.08798769 2.33167378 0 0 Z " fill="#1FB0EB" transform="translate(385,192)"/>
<path d="M0 0 C3.52305385 4.05468585 5.8860156 8.28637596 8.25 13.0625 C8.79527344 14.12307617 8.79527344 14.12307617 9.3515625 15.20507812 C9.69445312 15.89150391 10.03734375 16.57792969 10.390625 17.28515625 C10.70032227 17.90269775 11.01001953 18.52023926 11.32910156 19.15649414 C12 21 12 21 12 25 C10.68 25 9.36 25 8 25 C7.22596442 20.93631321 6.9015298 17.13574827 7 13 C6.34 13 5.68 13 5 13 C3.99088542 11.20963542 2.98177083 9.41927083 1.97265625 7.62890625 C1.1027487 6.02121854 1.1027487 6.02121854 0 5 C-0.04063832 3.33382885 -0.042721 1.66611905 0 0 Z " fill="#24ABDD" transform="translate(373,167)"/>
<path d="M0 0 C3.86923641 2.05977835 7.21209328 4.8443651 10.11328125 8.125 C10.11328125 8.785 10.11328125 9.445 10.11328125 10.125 C9.12328125 10.125 8.13328125 10.125 7.11328125 10.125 C7.11328125 9.135 7.11328125 8.145 7.11328125 7.125 C5.13328125 6.465 3.15328125 5.805 1.11328125 5.125 C1.11328125 4.135 1.11328125 3.145 1.11328125 2.125 C-7.85791094 0.02735172 -15.81073001 -0.41984915 -24.88671875 1.125 C-17.71211809 -3.65806711 -7.88627808 -2.9988041 0 0 Z " fill="#BFF7FC" transform="translate(184.88671875,217.875)"/>
<path d="M0 0 C0 0.66 0 1.32 0 2 C0.99 2.33 1.98 2.66 3 3 C2.67 3.66 2.34 4.32 2 5 C1.154375 4.38125 0.30875 3.7625 -0.5625 3.125 C-7.41227188 -1.35675329 -15.0147187 -1.8711216 -23 -1 C-26.21164498 0.010191 -29.05956398 1.37564623 -32 3 C-33.33147893 3.67036265 -34.66429 4.33810799 -36 5 C-36 4.34 -36 3.68 -36 3 C-35.34 3 -34.68 3 -34 3 C-33.67 1.68 -33.34 0.36 -33 -1 C-22.18855711 -4.53026707 -10.56419032 -4.17596229 0 0 Z " fill="#3CB1DB" transform="translate(189,218)"/>
<path d="M0 0 C2 1 2 1 3.109375 3.59375 C4.09352005 7.35767319 4.26580172 10.61277715 4.25 14.5 C4.25515625 15.7684375 4.2603125 17.036875 4.265625 18.34375 C4.00698139 21.90390317 3.28821239 24.68745385 2 28 C1.67 28 1.34 28 1 28 C1.01160156 27.10539062 1.02320313 26.21078125 1.03515625 25.2890625 C1.08337236 18.82810315 1.00713002 12.50247487 0.21875 6.0859375 C0 4 0 4 0 0 Z " fill="#D5FBFD" transform="translate(195,228)"/>
<path d="M0 0 C0.33 0.66 0.66 1.32 1 2 C7.27415909 4.01246612 13.99621404 4.31939248 20.53125 4.65625 C23 5 23 5 25 7 C14.43789938 7.48810735 5.99015796 6.83184141 -4 3 C-2.68 2.01 -1.36 1.02 0 0 Z " fill="#1B9DDF" transform="translate(174,348)"/>
<path d="M0 0 C0.33 0 0.66 0 1 0 C1.02578125 0.99 1.0515625 1.98 1.078125 3 C1.37129547 10.56973818 2.09054505 16.35392658 6 23 C5.67 23.66 5.34 24.32 5 25 C2 21.25 2 21.25 2 19 C1.34 19 0.68 19 0 19 C-2.76373827 13.47252347 -2.6553658 8.2937803 -1 2.5 C-0.67 1.675 -0.34 0.85 0 0 Z " fill="#37B1E5" transform="translate(145,235)"/>
<path d="M0 0 C0 0.33 0 0.66 0 1 C-1.23234375 1.24234375 -2.4646875 1.4846875 -3.734375 1.734375 C-13.06815576 3.61037906 -22.06775715 5.64818033 -31 9 C-31 8.34 -31 7.68 -31 7 C-20.81942006 1.429494 -11.60237704 -0.54670887 0 0 Z " fill="#0F5D7B" transform="translate(195,119)"/>
<path d="M0 0 C5.61435549 4.67862958 8.49253301 10.50797734 9.31640625 17.80078125 C9.37002282 20.270718 9.40318823 22.56211765 9 25 C8.34 25.66 7.68 26.32 7 27 C6.94392578 25.58847656 6.94392578 25.58847656 6.88671875 24.1484375 C6.82097656 22.90320313 6.75523437 21.65796875 6.6875 20.375 C6.60048828 18.53035156 6.60048828 18.53035156 6.51171875 16.6484375 C5.97209713 12.80105894 5.03328667 10.29382782 3 7 C2.01 6.34 1.02 5.68 0 5 C-0.1875 2.375 -0.1875 2.375 0 0 Z " fill="#BCF4FB" transform="translate(266,223)"/>
<path d="M0 0 C-0.38671875 0.40089844 -0.7734375 0.80179688 -1.171875 1.21484375 C-8.01475921 8.68442776 -10.57952668 15.92966403 -11 26 C-11.33 26 -11.66 26 -12 26 C-12.23668569 18.96517526 -11.7879537 12.8165735 -10 6 C-8.68 5.67 -7.36 5.34 -6 5 C-6 3.35 -6 1.7 -6 0 C-3 -1 -3 -1 0 0 Z " fill="#3AB3DB" transform="translate(306,221)"/>
<path d="M0 0 C4.24660856 2.25720635 7.1065965 4.99563551 10.3125 8.5625 C11.19550781 9.53316406 12.07851563 10.50382813 12.98828125 11.50390625 C15 14 15 14 15 16 C12.69 16 10.38 16 8 16 C7.67 15.34 7.34 14.68 7 14 C7.66 13.34 8.32 12.68 9 12 C8.566875 11.51789063 8.13375 11.03578125 7.6875 10.5390625 C7.130625 9.90742188 6.57375 9.27578125 6 8.625 C5.443125 7.99851563 4.88625 7.37203125 4.3125 6.7265625 C3 5 3 5 3 3 C2.01 3 1.02 3 0 3 C0 2.01 0 1.02 0 0 Z " fill="#2CB9EC" transform="translate(353,144)"/>
<path d="M0 0 C0.66 0.66 1.32 1.32 2 2 C-5.02639415 2.74805717 -11.93391809 3.13794954 -19 3 C-19 3.66 -19 4.32 -19 5 C-20.65 5.33 -22.3 5.66 -24 6 C-18.35201584 -1.0599802 -8.35872542 -0.87445127 0 0 Z " fill="#C9F8FC" transform="translate(329,216)"/>
<path d="M0 0 C4.69014085 0.63380282 4.69014085 0.63380282 6.375 2.625 C6.91125 3.07875 7.4475 3.5325 8 4 C11.64541845 3.76522801 11.64541845 3.76522801 15 3 C14.67 3.66 14.34 4.32 14 5 C13.01 5 12.02 5 11 5 C11 5.66 11 6.32 11 7 C14.3 7.33 17.6 7.66 21 8 C21 8.33 21 8.66 21 9 C13.86450227 9.80441937 9.64301722 8.8221821 3.8125 4.60546875 C2 3 2 3 0 0 Z " fill="#EAFCFC" transform="translate(226,259)"/>
<path d="M0 0 C3.70939744 1.60373289 6.42182136 3.23107595 9.1796875 6.2109375 C8.1896875 6.7059375 8.1896875 6.7059375 7.1796875 7.2109375 C7.1796875 6.5509375 7.1796875 5.8909375 7.1796875 5.2109375 C4.8696875 4.8809375 2.5596875 4.5509375 0.1796875 4.2109375 C-0.1503125 3.2209375 -0.4803125 2.2309375 -0.8203125 1.2109375 C-11.37147093 1.00321116 -11.37147093 1.00321116 -21.8203125 2.2109375 C-15.38051519 -2.08226071 -7.43105291 -2.07904805 0 0 Z " fill="#BEF4FA" transform="translate(256.8203125,216.7890625)"/>
<path d="M0 0 C1.02889831 2.65186292 1.11316209 3.71937626 0.03125 6.40234375 C-3.34649369 11.99457756 -6.2165511 15.83547136 -12 19 C-12.99 18.67 -13.98 18.34 -15 18 C-14.01 17.34 -13.02 16.68 -12 16 C-11.67 15.01 -11.34 14.02 -11 13 C-9.02 12.67 -7.04 12.34 -5 12 C-4.731875 11.13375 -4.46375 10.2675 -4.1875 9.375 C-3.02888013 6.08208036 -1.61790161 3.08872125 0 0 Z " fill="#CBF8FC" transform="translate(347,248)"/>
<path d="M0 0 C0.6875 1.75 0.6875 1.75 1 4 C-0.3125 6.25 -0.3125 6.25 -2 8 C-2.66 8 -3.32 8 -4 8 C-4.33 10.97 -4.66 13.94 -5 17 C-5.66 17 -6.32 17 -7 17 C-7.33 18.32 -7.66 19.64 -8 21 C-8.66 21 -9.32 21 -10 21 C-5.35051546 5.35051546 -5.35051546 5.35051546 0 0 Z " fill="#23A9E0" transform="translate(120,167)"/>
<path d="M0 0 C11.385 0.99 11.385 0.99 23 2 C23 2.66 23 3.32 23 4 C20.6739143 4.38063221 18.33944736 4.71269945 16 5 C15.67 4.67 15.34 4.34 15 4 C13.04583843 3.79000055 11.08599701 3.63167366 9.125 3.5 C5.81281812 3.27652749 3.15623804 3.05207935 0 2 C0 1.34 0 0.68 0 0 Z " fill="#15ACE8" transform="translate(229,268)"/>
<path d="M0 0 C0.49628906 0.39832031 0.99257813 0.79664063 1.50390625 1.20703125 C8.67545977 6.8000265 14.93453913 9.40385858 24 10 C24 10.33 24 10.66 24 11 C16.87399867 11.35368021 11.52940894 10.95671348 5 8 C5 7.34 5 6.68 5 6 C3.68 5.67 2.36 5.34 1 5 C0.67 3.35 0.34 1.7 0 0 Z " fill="#29AAD2" transform="translate(301,260)"/>
<path d="M0 0 C0.66 0.99 1.32 1.98 2 3 C1.34 3 0.68 3 0 3 C0 3.66 0 4.32 0 5 C-0.66 5 -1.32 5 -2 5 C-2.33 6.65 -2.66 8.3 -3 10 C-3.66 10 -4.32 10 -5 10 C-5 10.99 -5 11.98 -5 13 C-6.65 13.66 -8.3 14.32 -10 15 C-8.59601721 10.89889238 -6.62912962 8.01910841 -3.875 4.6875 C-3.15054688 3.80449219 -2.42609375 2.92148438 -1.6796875 2.01171875 C-1.12539062 1.34785156 -0.57109375 0.68398437 0 0 Z " fill="#455D6E" transform="translate(115,140)"/>
<path d="M0 0 C4.92604873 0.43465136 7.51891224 2.59626975 11 6 C12.375 8.8125 12.375 8.8125 13 11 C11.68 11.33 10.36 11.66 9 12 C9 10.35 9 8.7 9 7 C8.01 7 7.02 7 6 7 C6 6.01 6 5.02 6 4 C4.02 3.34 2.04 2.68 0 2 C0 1.34 0 0.68 0 0 Z " fill="#CBF7FD" transform="translate(332,218)"/>
<path d="M0 0 C7.98676972 1.51473219 15.40122878 4.16802552 23 7 C22.67 7.66 22.34 8.32 22 9 C19.03 8.34 16.06 7.68 13 7 C13 6.34 13 5.68 13 5 C11.453125 4.814375 11.453125 4.814375 9.875 4.625 C6.37883154 4.06110186 3.31602373 3.21317941 0 2 C0 1.34 0 0.68 0 0 Z " fill="#2EB5E0" transform="translate(307,121)"/>
<path d="M0 0 C0.33 0 0.66 0 1 0 C1.17942163 3.94727588 1.09350689 6.5980513 -1 10 C-1.66 10 -2.32 10 -3 10 C-3.2475 11.11375 -3.495 12.2275 -3.75 13.375 C-5 17 -5 17 -7.125 18.4375 C-7.74375 18.623125 -8.3625 18.80875 -9 19 C-7.39369175 14.75707468 -5.4231838 10.72974893 -3.375 6.6875 C-3.05015625 6.04232422 -2.7253125 5.39714844 -2.390625 4.73242188 C-1.59558044 3.15402459 -0.79804366 1.57688306 0 0 Z " fill="#125C83" transform="translate(383,291)"/>
<path d="M0 0 C0.66 0 1.32 0 2 0 C1.69024532 1.77131561 1.37709575 3.54203778 1.0625 5.3125 C0.88847656 6.29863281 0.71445312 7.28476562 0.53515625 8.30078125 C0 11 0 11 -1 14 C-1.66 14 -2.32 14 -3 14 C-3.33 13.01 -3.66 12.02 -4 11 C-4.66 10.34 -5.32 9.68 -6 9 C-4.71937515 7.2925002 -3.38232443 5.62626404 -2 4 C-1.34 4 -0.68 4 0 4 C0 2.68 0 1.36 0 0 Z " fill="#44606D" transform="translate(407,274)"/>
<path d="M0 0 C3.59634744 3.49359465 6.83451967 7.11098131 10 11 C9.67 11.66 9.34 12.32 9 13 C7.0625 12.6875 7.0625 12.6875 5 12 C4.67 11.01 4.34 10.02 4 9 C3.34 8.67 2.68 8.34 2 8 C1.3671875 6.15234375 1.3671875 6.15234375 0.875 3.9375 C0.70742188 3.20402344 0.53984375 2.47054687 0.3671875 1.71484375 C0.24601562 1.14894531 0.12484375 0.58304688 0 0 Z " fill="#425B69" transform="translate(376,138)"/>
<path d="M0 0 C0.33 0 0.66 0 1 0 C1.68867618 10.75100043 1.68867618 10.75100043 -0.875 14.625 C-3 17 -3 17 -5 18 C-3.36959185 11.98922864 -1.72852643 5.98336072 0 0 Z " fill="#105E8B" transform="translate(389,272)"/>
<path d="M0 0 C1.26582219 3.86723631 1.1118765 7.73151262 1.0625 11.75 C1.05798828 12.44738281 1.05347656 13.14476562 1.04882812 13.86328125 C1.0371002 15.57555803 1.01916653 17.28779033 1 19 C0.34 19 -0.32 19 -1 19 C-2.18681726 15.43954823 -2.09689832 12.56191663 -2.0625 8.8125 C-2.05347656 7.54019531 -2.04445312 6.26789063 -2.03515625 4.95703125 C-2.02355469 3.98121094 -2.01195312 3.00539062 -2 2 C-1.34 2 -0.68 2 0 2 C0 1.34 0 0.68 0 0 Z " fill="#27ABE2" transform="translate(220,234)"/>
<path d="M0 0 C3.65822202 3.5473668 7.01663945 7.27699731 10.3515625 11.12890625 C12.15332526 13.17403506 14.033852 15.11249792 16 17 C15.01 17.33 14.02 17.66 13 18 C11.76302083 16.47005208 10.52604167 14.94010417 9.2890625 13.41015625 C8.0333609 11.86733563 8.0333609 11.86733563 6 11 C6 10.01 6 9.02 6 8 C5.34 8 4.68 8 4 8 C0 2.58823529 0 2.58823529 0 0 Z " fill="#0D5880" transform="translate(121,313)"/>
<path d="M0 0 C17.03975874 -0.32016248 17.03975874 -0.32016248 22.0625 3.0625 C22.701875 3.701875 23.34125 4.34125 24 5 C21.27246094 4.54541016 18.54492188 4.09082031 15.81738281 3.63623047 C15.04491211 3.50748535 14.27244141 3.37874023 13.4765625 3.24609375 C10.2265625 2.70442708 6.9765625 2.16276042 3.7265625 1.62109375 C2.49679687 1.41613281 1.26703125 1.21117188 0 1 C0 0.67 0 0.34 0 0 Z " fill="#105E7F" transform="translate(296,119)"/>
<path d="M0 0 C0.66 0.33 1.32 0.66 2 1 C0.88037801 2.64949657 -0.24586845 4.29449838 -1.375 5.9375 C-2.00148438 6.85402344 -2.62796875 7.77054687 -3.2734375 8.71484375 C-5 11 -5 11 -7 12 C-7.3125 9.25 -7.3125 9.25 -7 6 C-4.625 3.625 -4.625 3.625 -2 2 C-1.34 2 -0.68 2 0 2 C0 1.34 0 0.68 0 0 Z " fill="#1AA0E0" transform="translate(371,310)"/>
<path d="M0 0 C0.99 0 1.98 0 3 0 C3.18175781 0.54269531 3.36351563 1.08539063 3.55078125 1.64453125 C3.80214844 2.35996094 4.05351563 3.07539063 4.3125 3.8125 C4.55613281 4.52019531 4.79976563 5.22789062 5.05078125 5.95703125 C5.88548537 8.06788069 5.88548537 8.06788069 7.5625 9.53125 C9.90591154 11.92560527 9.69633331 14.7811331 10 18 C6.97599132 14.45007676 4.79231263 10.93777235 2.75 6.75 C2.22921875 5.69296875 1.7084375 4.6359375 1.171875 3.546875 C0 1 0 1 0 0 Z " fill="#1B9FDB" transform="translate(112,295)"/>
<path d="M0 0 C3.72732134 4.53760859 4.13153833 7.95078013 4.0625 13.75 C4.05347656 14.73484375 4.04445313 15.7196875 4.03515625 16.734375 C4.02355469 17.48203125 4.01195312 18.2296875 4 19 C3.67 19 3.34 19 3 19 C2.855625 17.9275 2.71125 16.855 2.5625 15.75 C2.02103843 11.81334935 2.02103843 11.81334935 1 8 C0.34 7.67 -0.32 7.34 -1 7 C-0.67 4.69 -0.34 2.38 0 0 Z " fill="#C5F6FB" transform="translate(345,229)"/>
<path d="M0 0 C0.66 0.33 1.32 0.66 2 1 C1.360625 1.763125 0.72125 2.52625 0.0625 3.3125 C-2.14232781 5.88246713 -2.14232781 5.88246713 -3 9 C-6.0625 10.1875 -6.0625 10.1875 -9 11 C-7.59928507 5.70841026 -4.14512755 3.22521956 0 0 Z " fill="#D8F8FD" transform="translate(233,219)"/>
<path d="M0 0 C-4.18655758 1.86069226 -8.41330327 3.59990797 -12.6875 5.25 C-13.59886719 5.60578125 -14.51023438 5.9615625 -15.44921875 6.328125 C-18.13021728 7.03429919 -19.43172398 6.93829288 -22 6 C-19.56292162 5.0197729 -17.12536055 4.04077829 -14.6875 3.0625 C-13.99720703 2.78470703 -13.30691406 2.50691406 -12.59570312 2.22070312 C-3.97821465 -1.23461834 -3.97821465 -1.23461834 0 0 Z " fill="#2CB8E0" transform="translate(183,123)"/>
<path d="M0 0 C6.05327843 1.62212036 9.71794918 3.22857194 14 8 C16.16620544 9.29519995 16.16620544 9.29519995 18 10 C18 10.66 18 11.32 18 12 C13.83740241 10.5199653 10.41490692 8.4553071 6.75 6 C5.69296875 5.29875 4.6359375 4.5975 3.546875 3.875 C1 2 1 2 0 0 Z " fill="#1D96D7" transform="translate(326,372)"/>
<path d="M0 0 C3.3114019 0.57093136 4.75054423 1.54604826 7 4 C7.66 4.33 8.32 4.66 9 5 C9 5.66 9 6.32 9 7 C9.66 7.33 10.32 7.66 11 8 C10.01 8 9.02 8 8 8 C7.67 8.66 7.34 9.32 7 10 C5.83043409 8.52312468 4.66441854 7.04343707 3.5 5.5625 C2.8503125 4.73878906 2.200625 3.91507812 1.53125 3.06640625 C0 1 0 1 0 0 Z " fill="#37536C" transform="translate(113,333)"/>
<path d="M0 0 C2.21538462 5.29230769 2.21538462 5.29230769 1.125 8.875 C0.75375 9.57625 0.3825 10.2775 0 11 C-2.18975773 7.71536341 -2.99806563 4.79303725 -4 1 C-2 0 -2 0 0 0 Z " fill="#39596C" transform="translate(93,289)"/>
<path d="M0 0 C0.99 0.66 1.98 1.32 3 2 C3 2.66 3 3.32 3 4 C4.98 4.66 6.96 5.32 9 6 C5.0186217 7.3271261 1.14954773 7.06915913 -3 7 C-3 6.01 -3 5.02 -3 4 C-2.34 3.67 -1.68 3.34 -1 3 C-0.67 2.01 -0.34 1.02 0 0 Z " fill="#0EB0EE" transform="translate(153,263)"/>
<path d="M0 0 C0.66 0.33 1.32 0.66 2 1 C1.8125 3.375 1.8125 3.375 1 6 C-1.375 7.1875 -1.375 7.1875 -4 8 C-4.99 8.66 -5.98 9.32 -7 10 C-5.125 4.25 -5.125 4.25 -4 2 C-2.68 2 -1.36 2 0 2 C0 1.34 0 0.68 0 0 Z " fill="#21C1FA" transform="translate(142,144)"/>
<path d="M0 0 C-0.33 0.99 -0.66 1.98 -1 3 C-1.680625 2.195625 -2.36125 1.39125 -3.0625 0.5625 C-8.07350565 -3.75354866 -15.71134157 -2.91199079 -22 -3 C-22 -3.33 -22 -3.66 -22 -4 C-13.64014586 -5.11867849 -6.74492493 -5.93553394 0 0 Z " fill="#16A1EB" transform="translate(308,357)"/>
<path d="M0 0 C0.33 0 0.66 0 1 0 C1.03738281 0.60328125 1.07476562 1.2065625 1.11328125 1.828125 C1.50998545 6.65080352 2.01848916 9.14888183 5 13 C5.55594382 15.67580436 5.77229386 18.26752637 6 21 C2.74227042 18.36279034 1.02957084 14.9967368 0 11 C-0.23790051 7.3174984 -0.1798743 3.6840921 0 0 Z " fill="#C0EFFA" transform="translate(220,238)"/>
<path d="M0 0 C0.66 0.33 1.32 0.66 2 1 C0 4 0 4 -3 5 C-4.20882096 7.00016466 -4.20882096 7.00016466 -5 9 C-5.99 9 -6.98 9 -8 9 C-8 9.66 -8 10.32 -8 11 C-9.32 10.67 -10.64 10.34 -12 10 C-8.04 6.7 -4.08 3.4 0 0 Z " fill="#2EB8E3" transform="translate(150,135)"/>
<path d="M0 0 C0.33 0.99 0.66 1.98 1 3 C-0.14453125 4.82421875 -0.14453125 4.82421875 -1.8125 6.6875 C-2.35519531 7.31011719 -2.89789063 7.93273437 -3.45703125 8.57421875 C-5 10 -5 10 -7 10 C-7 10.99 -7 11.98 -7 13 C-7.66 13 -8.32 13 -9 13 C-7.48268615 8.44805844 -5.06964403 4.65996019 -2 1 C-1.34 0.67 -0.68 0.34 0 0 Z " fill="#CBF7FC" transform="translate(156,221)"/>
<path d="M0 0 C0.66 0.33 1.32 0.66 2 1 C1.34 2.98 0.68 4.96 0 7 C0.66 7.33 1.32 7.66 2 8 C0.35 8.33 -1.3 8.66 -3 9 C-3 8.34 -3 7.68 -3 7 C-3.66 6.67 -4.32 6.34 -5 6 C-3.63016497 2.83884224 -3.0109362 2.0072908 0 0 Z " fill="#39576A" transform="translate(142,116)"/>
<path d="M0 0 C0.33 0 0.66 0 1 0 C1 4.29 1 8.58 1 13 C-3.19174654 11.95206337 -4.21592961 11.08236365 -7 8 C-4.69 8.33 -2.38 8.66 0 9 C0 6.03 0 3.06 0 0 Z " fill="#12A5EC" transform="translate(343,369)"/>
<path d="M0 0 C5.51561369 2.88037604 10.36290866 5.83850777 15 10 C11.30581799 10 9.22163822 8.71820705 6 7 C6 6.34 6 5.68 6 5 C5.071875 4.7834375 5.071875 4.7834375 4.125 4.5625 C2 4 2 4 0 3 C0 2.01 0 1.02 0 0 Z " fill="#0E547C" transform="translate(313,364)"/>
<path d="M0 0 C0.33 1.32 0.66 2.64 1 4 C-0.55780332 4.67756882 -2.12150096 5.34159457 -3.6875 6 C-4.99267578 6.556875 -4.99267578 6.556875 -6.32421875 7.125 C-9.0572002 8.01870488 -11.14700934 8.16449676 -14 8 C-13.43667969 7.72285156 -12.87335938 7.44570313 -12.29296875 7.16015625 C-9.93647297 5.9678577 -7.62285469 4.71678731 -5.3125 3.4375 C-4.52488281 3.00308594 -3.73726563 2.56867188 -2.92578125 2.12109375 C-1.05891254 1.14402834 -1.05891254 1.14402834 0 0 Z " fill="#32B1DD" transform="translate(266,262)"/>
<path d="M0 0 C2.64 0.33 5.28 0.66 8 1 C8 1.33 8 1.66 8 2 C6.2984375 2.433125 6.2984375 2.433125 4.5625 2.875 C3.386875 3.24625 2.21125 3.6175 1 4 C0.67 4.66 0.34 5.32 0 6 C-3.0625 6.625 -3.0625 6.625 -6 7 C-6 6.34 -6 5.68 -6 5 C-4.68 4.67 -3.36 4.34 -2 4 C-2 3.34 -2 2.68 -2 2 C-1.34 2 -0.68 2 0 2 C0 1.34 0 0.68 0 0 Z " fill="#20AFF2" transform="translate(306,214)"/>
<path d="M0 0 C3.65316671 1.24976756 4.78065836 1.67098753 7 5 C6.67 6.32 6.34 7.64 6 9 C3.69 7.02 1.38 5.04 -1 3 C-0.67 2.01 -0.34 1.02 0 0 Z " fill="#3F5C6F" transform="translate(127,345)"/>
<path d="M0 0 C1.44977894 2.34112451 2.04314411 3.5796929 1.7578125 6.359375 C1.54898438 7.14828125 1.34015625 7.9371875 1.125 8.75 C0.92132813 9.54921875 0.71765625 10.3484375 0.5078125 11.171875 C0.34023437 11.77515625 0.17265625 12.3784375 0 13 C-0.99 13 -1.98 13 -3 13 C-2.68817931 11.58318366 -2.37551263 10.16655349 -2.0625 8.75 C-1.88847656 7.96109375 -1.71445313 7.1721875 -1.53515625 6.359375 C-1.052444 4.23121297 -0.53836822 2.11467158 0 0 Z " fill="#476071" transform="translate(88,188)"/>
<path d="M0 0 C0.66 0 1.32 0 2 0 C3.23568605 1.52834853 4.47027491 3.05765382 5.69140625 4.59765625 C7.31748495 6.34023014 8.63403644 6.82474344 11 7 C11 7.66 11 8.32 11 9 C9.3125 9.8125 9.3125 9.8125 7 10 C4.375 7.6875 4.375 7.6875 2 5 C1.34 4.34 0.68 3.68 0 3 C0 2.01 0 1.02 0 0 Z " fill="#284759" transform="translate(359,125)"/>
<path d="M0 0 C1.71017726 2.5652659 2.90417811 4.87960965 4.125 7.6875 C4.47820312 8.49574219 4.83140625 9.30398438 5.1953125 10.13671875 C5.46085937 10.75160156 5.72640625 11.36648438 6 12 C4.11328125 11.671875 4.11328125 11.671875 2 11 C-0.10234659 7.81023276 -1.10492845 5.96534169 -0.6875 2.125 C-0.460625 1.42375 -0.23375 0.7225 0 0 Z " fill="#31B0DD" transform="translate(295,248)"/>
<path d="M0 0 C-0.50789062 0.24234375 -1.01578125 0.4846875 -1.5390625 0.734375 C-5.94170019 2.87798137 -9.98857634 5.19200344 -14 8 C-14 6.68 -14 5.36 -14 4 C-12.68 4 -11.36 4 -10 4 C-9.67 2.68 -9.34 1.36 -9 0 C-8.01 0 -7.02 0 -6 0 C-3.50907189 -1.24546405 -2.58919267 -0.7767578 0 0 Z " fill="#3AB1DA" transform="translate(240,217)"/>
<path d="M0 0 C4.98012761 1.50912958 8.24259942 4.55661849 12 8 C11.01 8.33 10.02 8.66 9 9 C7.2925002 7.71937515 5.62626404 6.38232443 4 5 C3.01 4.67 2.02 4.34 1 4 C0.3125 1.9375 0.3125 1.9375 0 0 Z " fill="#31B7E3" transform="translate(341,135)"/>
<path d="M0 0 C4.84659077 0.59104765 8.60748167 1.97944157 13 4 C9.16423878 5.38087404 5.91644812 4.94284862 2 4 C0.5625 1.9375 0.5625 1.9375 0 0 Z " fill="#475E6C" transform="translate(324,105)"/>
<path d="M0 0 C0.33 0.99 0.66 1.98 1 3 C2.32303717 3.3721042 3.65737935 3.70630173 5 4 C5.33 4.66 5.66 5.32 6 6 C5.34 6 4.68 6 4 6 C3.67 6.66 3.34 7.32 3 8 C1.02 6.35 -0.96 4.7 -3 3 C-2.01 2.01 -1.02 1.02 0 0 Z " fill="#3B5A6D" transform="translate(138,352)"/>
<path d="M0 0 C1.43859375 -0.00773438 1.43859375 -0.00773438 2.90625 -0.015625 C5.5 0.25 5.5 0.25 8.5 2.25 C7.56027344 2.23259766 7.56027344 2.23259766 6.6015625 2.21484375 C5.37566406 2.20130859 5.37566406 2.20130859 4.125 2.1875 C2.90683594 2.17009766 2.90683594 2.17009766 1.6640625 2.15234375 C-0.54937142 2.10533666 -0.54937142 2.10533666 -2.5 3.25 C-4.50800456 2.96887936 -6.51014051 2.63932033 -8.5 2.25 C-5.14802157 0.01534771 -3.92208754 -0.02108649 0 0 Z " fill="#EDFEFE" transform="translate(247.5,216.75)"/>
<path d="M0 0 C0.99 0.33 1.98 0.66 3 1 C3.33 2.98 3.66 4.96 4 7 C2.68 7 1.36 7 0 7 C-0.38133299 5.0085944 -0.71325582 3.00720923 -1 1 C-0.67 0.67 -0.34 0.34 0 0 Z " fill="#1DAFEB" transform="translate(381,185)"/>
<path d="M0 0 C2 1 2 1 3 3 C2.01 3.33 1.02 3.66 0 4 C-0.309375 4.78375 -0.61875 5.5675 -0.9375 6.375 C-2.14208614 9.35103635 -3.33158609 10.31000453 -6 12 C-5.6875 10.0625 -5.6875 10.0625 -5 8 C-4.01 7.67 -3.02 7.34 -2 7 C-2.226875 6.401875 -2.45375 5.80375 -2.6875 5.1875 C-2.790625 4.465625 -2.89375 3.74375 -3 3 C-1.5625 1.25 -1.5625 1.25 0 0 Z " fill="#1C5673" transform="translate(140,137)"/>
<path d="M0 0 C0.66 0 1.32 0 2 0 C0.74194623 4.50802601 -0.90407165 7.4912812 -4 11 C-4.66 10.34 -5.32 9.68 -6 9 C-3.25 4.125 -3.25 4.125 -1 3 C-0.67 2.01 -0.34 1.02 0 0 Z " fill="#3F5C69" transform="translate(394,309)"/>
<path d="M0 0 C2.125 0.375 2.125 0.375 4 1 C3.66226563 1.47050781 3.32453125 1.94101563 2.9765625 2.42578125 C2.30753906 3.35970703 2.30753906 3.35970703 1.625 4.3125 C1.18414062 4.92738281 0.74328125 5.54226562 0.2890625 6.17578125 C-0.83410907 7.7652392 -1.92041447 9.38062171 -3 11 C-2.88590407 9.54077307 -2.75834456 8.08259402 -2.625 6.625 C-2.55539063 5.81289062 -2.48578125 5.00078125 -2.4140625 4.1640625 C-2 2 -2 2 0 0 Z " fill="#3AB5DD" transform="translate(149,224)"/>
<path d="M0 0 C0 3.65351863 -0.88942301 5.06026776 -3 8 C-5.1875 9.3125 -5.1875 9.3125 -7 10 C-7.66 9.34 -8.32 8.68 -9 8 C-8.43410156 7.50628906 -7.86820312 7.01257813 -7.28515625 6.50390625 C-6.55167969 5.86324219 -5.81820312 5.22257813 -5.0625 4.5625 C-4.33160156 3.92441406 -3.60070312 3.28632813 -2.84765625 2.62890625 C-1.87860647 1.77458541 -0.91348825 0.91348825 0 0 Z " fill="#3E5969" transform="translate(128,127)"/>
<path d="M0 0 C-0.66 1.32 -1.32 2.64 -2 4 C-2.66 4 -3.32 4 -4 4 C-4 4.66 -4 5.32 -4 6 C-5.98 6.99 -5.98 6.99 -8 8 C-5.18918919 0 -5.18918919 0 0 0 Z " fill="#1D9FDB" transform="translate(356,330)"/>
<path d="M0 0 C4.28806873 0.47645208 6.26647487 1.65902484 9 5 C9 5.66 9 6.32 9 7 C8.01 7 7.02 7 6 7 C6 6.01 6 5.02 6 4 C4.02 3.34 2.04 2.68 0 2 C0 1.34 0 0.68 0 0 Z " fill="#D2FAFD" transform="translate(186,221)"/>
<path d="M0 0 C0.66 0.33 1.32 0.66 2 1 C1.195625 1.45375 0.39125 1.9075 -0.4375 2.375 C-3.08856572 3.74725665 -3.08856572 3.74725665 -4 6 C-3.34 6.33 -2.68 6.66 -2 7 C-3.65 6.67 -5.3 6.34 -7 6 C-7 5.01 -7 4.02 -7 3 C-4.69631264 1.93347808 -2.35981813 0.93578995 0 0 Z " fill="#1DC4F7" transform="translate(167,128)"/>
<path d="M0 0 C3.63 0 7.26 0 11 0 C10 3 10 3 8 4 C7.01 4.33 6.02 4.66 5 5 C5 4.01 5 3.02 5 2 C3.35 1.67 1.7 1.34 0 1 C0 0.67 0 0.34 0 0 Z " fill="#27BEF4" transform="translate(296,121)"/>
<path d="M0 0 C1.98283479 1.11852219 3.96117623 2.24501325 5.9375 3.375 C7.59072266 4.31472656 7.59072266 4.31472656 9.27734375 5.2734375 C12 7 12 7 13 9 C8.39024 7.68292571 4.81142658 5.92504831 1 3 C0.67 2.01 0.34 1.02 0 0 Z " fill="#10587E" transform="translate(144,337)"/>
<path d="M0 0 C2.90802461 2.21928194 4.95312762 3.92969143 7 7 C6.625 9.1875 6.625 9.1875 6 11 C4 8 4 8 4 5 C2.68 4.67 1.36 4.34 0 4 C0 2.68 0 1.36 0 0 Z " fill="#195072" transform="translate(114,304)"/>
<path d="M0 0 C1.43931117 0.45261358 2.87638999 0.91232979 4.3125 1.375 C5.11300781 1.63023437 5.91351563 1.88546875 6.73828125 2.1484375 C9 3 9 3 12 5 C10.3745692 4.85904936 8.74965949 4.71207913 7.125 4.5625 C6.22007812 4.48128906 5.31515625 4.40007812 4.3828125 4.31640625 C2 4 2 4 0 3 C0 2.01 0 1.02 0 0 Z " fill="#2BAFDB" transform="translate(230,265)"/>
<path d="M0 0 C0.33 0.99 0.66 1.98 1 3 C1.66 3.33 2.32 3.66 3 4 C2.34 4 1.68 4 1 4 C1 4.99 1 5.98 1 7 C0.01 7 -0.98 7 -2 7 C-2.33 5.35 -2.66 3.7 -3 2 C-2.01 1.34 -1.02 0.68 0 0 Z " fill="#1DB2EF" transform="translate(152,217)"/>
<path d="M0 0 C2.0625 0.4375 2.0625 0.4375 4 1 C3.34 2.98 2.68 4.96 2 7 C1.34 7 0.68 7 0 7 C-0.38133299 5.0085944 -0.71325582 3.00720923 -1 1 C-0.67 0.67 -0.34 0.34 0 0 Z " fill="#325469" transform="translate(84,206)"/>
<path d="M0 0 C0.66 0.33 1.32 0.66 2 1 C0.125 7.75 0.125 7.75 -1 10 C-1.66 10 -2.32 10 -3 10 C-2.49287967 6.28111761 -1.88391785 3.26545761 0 0 Z " fill="#4F6677" transform="translate(92,178)"/>
<path d="M0 0 C-0.66 1.32 -1.32 2.64 -2 4 C-4.31 3.67 -6.62 3.34 -9 3 C-8 1 -8 1 -5.625 -0.1875 C-3 -1 -3 -1 0 0 Z " fill="#395666" transform="translate(181,370)"/>
<path d="M0 0 C0.99 0.66 1.98 1.32 3 2 C0.69 4.31 -1.62 6.62 -4 9 C-4.33 8.01 -4.66 7.02 -5 6 C-3.59554165 3.7363436 -1.8032087 1.9791315 0 0 Z " fill="#516B77" transform="translate(370,341)"/>
<path d="M0 0 C1.65 0 3.3 0 5 0 C5.66 1.32 6.32 2.64 7 4 C6.01 5.485 6.01 5.485 5 7 C0 1.125 0 1.125 0 0 Z " fill="#19A2E7" transform="translate(122,313)"/>
<path d="M0 0 C2.97 0.495 2.97 0.495 6 1 C6 1.99 6 2.98 6 4 C4.125 4.625 4.125 4.625 2 5 C1.34 4.34 0.68 3.68 0 3 C0 2.01 0 1.02 0 0 Z " fill="#344F5E" transform="translate(343,114)"/>
<path d="M0 0 C0.598125 0.350625 1.19625 0.70125 1.8125 1.0625 C1.07 1.743125 1.07 1.743125 0.3125 2.4375 C-1.41359337 3.93885519 -1.41359337 3.93885519 -1.1875 6.0625 C-1.8475 6.0625 -2.5075 6.0625 -3.1875 6.0625 C-3.8475 4.0825 -4.5075 2.1025 -5.1875 0.0625 C-2.1875 -0.9375 -2.1875 -0.9375 0 0 Z " fill="#0CA3F6" transform="translate(311.1875,353.9375)"/>
<path d="M0 0 C3.62528568 -0.20140476 5.86501708 0.14223235 9 2 C6 4 6 4 2.8125 3.625 C1.884375 3.41875 0.95625 3.2125 0 3 C0 2.01 0 1.02 0 0 Z " fill="#0EA5F6" transform="translate(167,346)"/>
<path d="M0 0 C1.32 0 2.64 0 4 0 C4 0.66 4 1.32 4 2 C4.99 2.33 5.98 2.66 7 3 C7.33 5.64 7.66 8.28 8 11 C6 8 6 8 5.6875 6 C4.6761744 3.05796189 2.65217104 2.4280921 0 1 C0 0.67 0 0.34 0 0 Z " fill="#26B2EE" transform="translate(192,223)"/>
<path d="M0 0 C0.66 0.66 1.32 1.32 2 2 C1.875 4.5 1.875 4.5 1 7 C-0.98 7.99 -0.98 7.99 -3 9 C-2.01 6.03 -1.02 3.06 0 0 Z " fill="#4D6879" transform="translate(96,168)"/>
<path d="M0 0 C0.66 0 1.32 0 2 0 C2 0.99 2 1.98 2 3 C2.99 3 3.98 3 5 3 C6.6875 5.5 6.6875 5.5 8 8 C5.03 7.505 5.03 7.505 2 7 C1.34 4.69 0.68 2.38 0 0 Z " fill="#1CC1F7" transform="translate(351,144)"/>
<path d="M0 0 C0 4.38968456 -2.12805101 5.76905739 -5 9 C-5.99 8.34 -6.98 7.68 -8 7 C-7.01 7 -6.02 7 -5 7 C-4.9175 6.401875 -4.835 5.80375 -4.75 5.1875 C-3.79544128 2.4033704 -2.42867729 1.56688858 0 0 Z " fill="#20B0E8" transform="translate(342,261)"/>
<path d="M0 0 C1.65 0 3.3 0 5 0 C5.33 0.99 5.66 1.98 6 3 C6.66 3.33 7.32 3.66 8 4 C8 4.66 8 5.32 8 6 C4.08597051 4.73058503 2.20927127 3.48832306 0 0 Z " fill="#D4F7FC" transform="translate(303,261)"/>
<path d="M0 0 C3.875 4.75 3.875 4.75 5 7 C3.35 7 1.7 7 0 7 C-0.66 5.68 -1.32 4.36 -2 3 C-1.34 2.01 -0.68 1.02 0 0 Z " fill="#16B2F4" transform="translate(146,254)"/>
<path d="M0 0 C1.17539996 0.92652701 2.34010577 1.86663387 3.5 2.8125 C4.1496875 3.33457031 4.799375 3.85664062 5.46875 4.39453125 C7 6 7 6 7 9 C0.70535714 4.17857143 0.70535714 4.17857143 0 0 Z " fill="#415965" transform="translate(360,123)"/>
<path d="M0 0 C1.32 0 2.64 0 4 0 C2.70700306 2.88437779 1.34058637 4.87219421 -1 7 C-1.33 5.68 -1.66 4.36 -2 3 C-1.34 3 -0.68 3 0 3 C0 2.01 0 1.02 0 0 Z " fill="#455E6A" transform="translate(379,330)"/>
<path d="M0 0 C3.67420866 0.30618405 4.78135513 0.75771784 7.3125 3.5625 C8.1478125 4.7690625 8.1478125 4.7690625 9 6 C4.58763974 6 3.21615077 3.9302707 0 1 C0 0.67 0 0.34 0 0 Z " fill="#CDF6FD" transform="translate(226,259)"/>
<path d="M0 0 C0.8125 1.6875 0.8125 1.6875 1 4 C-1.1613627 6.51185394 -3.01962439 8.50981219 -6 10 C-4.6302836 6.00499382 -2.74277578 3.19990508 0 0 Z " fill="#2CB1DD" transform="translate(127,157)"/>
<path d="M0 0 C0 0.66 0 1.32 0 2 C-4.01804691 2.84098656 -7.01803543 3.05404945 -11 2 C-11 1.67 -11 1.34 -11 1 C-7.27569643 0.30710631 -3.78916254 -0.11144596 0 0 Z " fill="#496574" transform="translate(191,100)"/>
<path d="M0 0 C0.66 0 1.32 0 2 0 C0.83857315 4.35535069 -0.07699505 6.64619703 -4 9 C-2.94124926 5.59687262 -1.99097846 2.98646769 0 0 Z " fill="#175A7F" transform="translate(388,281)"/>
<path d="M0 0 C1.1725131 0.95117134 2.33787015 1.91117009 3.5 2.875 C4.47453125 3.67550781 4.47453125 3.67550781 5.46875 4.4921875 C5.9740625 4.98976563 6.479375 5.48734375 7 6 C7 6.66 7 7.32 7 8 C6.34 8 5.68 8 5 8 C5 7.34 5 6.68 5 6 C3.68 5.67 2.36 5.34 1 5 C0.67 3.35 0.34 1.7 0 0 Z " fill="#31B1DE" transform="translate(301,260)"/>
<path d="M0 0 C0.33 0 0.66 0 1 0 C0.75 3.375 0.75 3.375 0 7 C-2.0625 8.4375 -2.0625 8.4375 -4 9 C-2.80100302 5.9168649 -1.52299523 2.93720508 0 0 Z " fill="#3EB6DE" transform="translate(347,252)"/>
<path d="M0 0 C2.97 0 5.94 0 9 0 C9 0.33 9 0.66 9 1 C3.555 2.485 3.555 2.485 -2 4 C-1.34 2.68 -0.68 1.36 0 0 Z " fill="#41B4DB" transform="translate(308,216)"/>
<path d="M0 0 C0.66 0 1.32 0 2 0 C1.7834375 1.051875 1.7834375 1.051875 1.5625 2.125 C0.98521625 5.07556141 0.48304859 8.03270151 0 11 C-0.33 11 -0.66 11 -1 11 C-1.02688151 9.35425434 -1.04634123 7.70838587 -1.0625 6.0625 C-1.07410156 5.14597656 -1.08570312 4.22945312 -1.09765625 3.28515625 C-1 1 -1 1 0 0 Z " fill="#15AFF4" transform="translate(104,214)"/>
<path d="M0 0 C2.45823172 3.68734758 3.01242616 6.69699971 4 11 C2 9.4375 2 9.4375 0 7 C-0.25 3.25 -0.25 3.25 0 0 Z " fill="#22A6D9" transform="translate(385,192)"/>
<path d="M0 0 C1.00000429 4.00001715 0.80688405 6.05523353 0 10 C-0.99 10.33 -1.98 10.66 -3 11 C-2.01 7.37 -1.02 3.74 0 0 Z " fill="#23A3DA" transform="translate(109,188)"/>
<path d="M0 0 C1.98 0 3.96 0 6 0 C6.33 0.99 6.66 1.98 7 3 C6.01 3.33 5.02 3.66 4 4 C2.68 2.68 1.36 1.36 0 0 Z " fill="#3E5A6C" transform="translate(322,394)"/>
<path d="M0 0 C-0.33 0.99 -0.66 1.98 -1 3 C-1.99 3.33 -2.98 3.66 -4 4 C-6.1875 2.5625 -6.1875 2.5625 -8 1 C-5.29120665 -0.35439668 -2.99066732 -0.06501451 0 0 Z " fill="#3D5B71" transform="translate(316,384)"/>
<path d="M0 0 C0.66 0.33 1.32 0.66 2 1 C0.25 6.75 0.25 6.75 -2 9 C-1.125 1.125 -1.125 1.125 0 0 Z " fill="#3E5866" transform="translate(400,296)"/>
<path d="M0 0 C0.66 0 1.32 0 2 0 C1.56802365 4.7517398 0.67230705 6.92000054 -3 10 C-2.21302675 6.58978257 -1.12880057 3.31114834 0 0 Z " fill="#C5F7FB" transform="translate(271,250)"/>
<path d="M0 0 C1.0326802 2.78823655 1.04509293 3.8677274 0.0625 6.75 C-0.288125 7.4925 -0.63875 8.235 -1 9 C-1.66 9 -2.32 9 -3 9 C-2.25 2.25 -2.25 2.25 0 0 Z " fill="#145577" transform="translate(109,184)"/>
<path d="M0 0 C0 0.99 0 1.98 0 3 C-1.98 3.33 -3.96 3.66 -6 4 C-6 3.01 -6 2.02 -6 1 C-3 0 -3 0 0 0 Z " fill="#14C4FA" transform="translate(332,131)"/>
<path d="M0 0 C0.66 0.33 1.32 0.66 2 1 C-0.97 3.475 -0.97 3.475 -4 6 C-4.99 5.34 -5.98 4.68 -7 4 C-1.7265625 0.77734375 -1.7265625 0.77734375 0 0 Z " fill="#2BB8E2" transform="translate(159,130)"/>
<path d="M0 0 C0.33 0.66 0.66 1.32 1 2 C0.25 4.0625 0.25 4.0625 -1 6 C-1.99 6.33 -2.98 6.66 -4 7 C-4.66 6.34 -5.32 5.68 -6 5 C-4.02 3.35 -2.04 1.7 0 0 Z " fill="#47616F" transform="translate(135,121)"/>
<path d="M0 0 C0.66 0 1.32 0 2 0 C0.75023244 3.65316671 0.32901247 4.78065836 -3 7 C-2.25 2.25 -2.25 2.25 0 0 Z " fill="#1C9CD8" transform="translate(361,322)"/>
<path d="M0 0 C0.66 0 1.32 0 2 0 C2 1.65 2 3.3 2 5 C1.34 5 0.68 5 0 5 C-0.33 5.66 -0.66 6.32 -1 7 C-1.625 5.1875 -1.625 5.1875 -2 3 C-1.34 2.01 -0.68 1.02 0 0 Z " fill="#0EAAF6" transform="translate(371,305)"/>
<path d="M0 0 C1.32 0 2.64 0 4 0 C3.67 0.99 3.34 1.98 3 3 C0.03 3 -2.94 3 -6 3 C-6 2.67 -6 2.34 -6 2 C-4.02 2 -2.04 2 0 2 C0 1.34 0 0.68 0 0 Z " fill="#DEFCFE" transform="translate(256,265)"/>
<path d="M0 0 C0.99 0.99 1.98 1.98 3 3 C2.01 3.99 1.02 4.98 0 6 C-1.32 4.68 -2.64 3.36 -4 2 C-2.68 2.33 -1.36 2.66 0 3 C0 2.01 0 1.02 0 0 Z " fill="#E0F6F7" transform="translate(156,258)"/>
<path d="M0 0 C0.33 0.66 0.66 1.32 1 2 C1.66 2 2.32 2 3 2 C3.66 3.65 4.32 5.3 5 7 C4.01 7 3.02 7 2 7 C0 4 0 4 0 0 Z " fill="#DFF8FD" transform="translate(299,253)"/>
<path d="M0 0 C0.66 0 1.32 0 2 0 C0.7508258 3.45925163 -0.67527795 6.14693203 -3 9 C-3.25532751 5.93606987 -3.21861333 4.36766788 -1.625 1.6875 C-0.820625 0.8521875 -0.820625 0.8521875 0 0 Z " fill="#3EB4DA" transform="translate(224,225)"/>
<path d="M0 0 C1.65 1.65 3.3 3.3 5 5 C4.67 5.66 4.34 6.32 4 7 C2.68 6.67 1.36 6.34 0 6 C0 4.02 0 2.04 0 0 Z " fill="#2AAAE0" transform="translate(368,160)"/>
<path d="M0 0 C3.26460973 1.80412643 4.88929795 2.83394693 7 6 C6.01 6 5.02 6 4 6 C3.67 5.01 3.34 4.02 3 3 C2.01 3 1.02 3 0 3 C0 2.01 0 1.02 0 0 Z " fill="#2EB2DF" transform="translate(353,144)"/>
<path d="M0 0 C5.53846154 0.49230769 5.53846154 0.49230769 7.875 3.0625 C8.431875 4.0215625 8.431875 4.0215625 9 5 C5.22454612 3.90931332 2.52956528 3.0916909 0 0 Z " fill="#0D6284" transform="translate(334,130)"/>
</svg>
